<?xml version="1.0" encoding="utf-8"?>
<!-- Generator: Adobe Illustrator 24.0.2, SVG Export Plug-In . SVG Version: 6.00 Build 0)  -->
<svg version="1.1" id="Layer_1" xmlns="http://www.w3.org/2000/svg" xmlns:xlink="http://www.w3.org/1999/xlink" x="0px" y="0px"
	 viewBox="0 0 1080 1080" style="enable-background:new 0 0 1080 1080;" xml:space="preserve">
<style type="text/css">
	.st0{fill:#004AAD;}
	.st1{fill:#FFFFFF;}
	.st2{enable-background:new    ;}
</style>
<title>SVG-4</title>
<rect id="Fondo" class="st0" width="1080" height="1080"/>
<g>
	<g id="Puño">
		<path class="st1" d="M817.6,433.6c-12-7.9-24.4-15-36.7-22.4l-4.3-2.6c1.9-10.3,5.3-19.5,4.7-28.5c-0.6-7.8-4.8-15.9-9.1-22.9
			c-13.6-21.8-28.4-42.9-50.3-57.6c-1.2-0.8-1.7-4-1.3-5.9c3.3-17.3-1-32.2-13.4-44.8c-10.9-11-24.4-17.9-38.3-24.2
			c-22.3-10.1-43.2-9.7-61.5,10.3c-3-4.6-5.5-8.6-8.3-12.4c-15.6-21.6-34.4-39-62-43c-18.4-2.7-34.2,0-46.8,17.1
			c-27.6,37.4-57.1,73.3-85.5,110c-3.1,3.9-5.7,4.8-10.1,3.1c-5.8-2.4-11.7-4.4-17.8-6.1c-12.2-3.4-29.8,5.4-35.1,17.2
			c-1.1,2.5-2.2,5.1-3.4,7.6c-31.1,62.2-62.2,124.3-93.3,186.5c-2.3,4.6-2.1,7.9,0.6,12.2c46.1,72.6,92.2,145.3,138.1,218
			c5.1,7.9,7.8,17.2,7.7,26.6c-0.1,55.7-0.1,111.3-0.1,167c0,11.3,1.3,12.6,12.4,12.6c100.7,0,201.3,0,302,0
			c10.9,0,12.6-1.8,12.6-12.7c0-56.3-0.1-112.7,0.1-169c0.1-4.4,1.1-8.8,3-12.8c11.6-25.3,23.6-50.3,35.2-75.6
			c13.2-28.5,26.5-57,31.9-88.4c1-5.5,1.3-11.2,3.5-16.2c9.1-21,18.9-41.6,28.1-62.6c5.2-11.9,10.8-23.8,14.4-36.3
			C840,459.3,833.8,444.2,817.6,433.6z M714.2,310.6c4.5,3.6,8.9,6.6,12.6,10.3c14.7,14.5,26.7,31.1,37.3,48.8
			c6.3,10.5,5.2,20.5-0.8,30.2c-5,8-10.7,15.5-16.3,23c-18.6,24.6-37.1,49.1-56.1,73.4c-3.5,4.5-8.7,8.1-13.6,11.3
			c-4.8,3.1-11,3.3-15.9,0.3c-8.5-4.9-17.2-9.6-25.1-15.5c-12-8.9-13.4-22.1-11-35.4c1.4-8.4,4.4-16.4,8.8-23.7
			c24.9-39.1,50.4-77.9,75.8-116.7C710.9,314.7,712.3,313.1,714.2,310.6L714.2,310.6z M606.6,258.6c3.8-5.4,7.9-10.6,12.3-15.6
			c9.5-10.9,21.9-14.4,34.8-9.1c13.7,5.6,27.4,12.4,39.4,20.9c17.3,12.3,19.6,31.8,7.9,49.9c-27.8,42.8-55.7,85.7-84.1,129.4
			l-89.9-58.8c8.8-13,17.4-25.7,26-38.4C570.9,310.8,588.7,284.6,606.6,258.6L606.6,258.6z M448.4,273.1c18.4-23.6,37.3-47,55.2-71
			c8.2-11,19.1-10.4,30-9.3c16.6,1.6,30.4,10.1,41.6,22.2c6.9,7.6,13.1,15.8,18.5,24.6c2,3.2,2.1,9.8,0.1,12.9
			c-25.5,38.3-51.5,76.2-77.4,114.2c-0.5,0.5-1,0.9-1.6,1.3c-32.3-18.5-64.3-36.8-97-55.5C428.2,299,438.2,286,448.4,273.1z
			 M538,687.5c-4-0.1-7.6,0.4-8,5.2s3.1,6.6,7.4,6.9c0.8,0.1,1.7,0.2,3.1,0.4v237.7H407.8c0.5-5.3,1.3-10.5,1.3-15.7
			c0.1-50.8,0-101.5,0.2-152.2c0.1-5.5-1.5-10.9-4.6-15.5c-48.1-75.9-96.1-151.9-144.2-227.8c-2.6-4.2-2.7-7.2-0.6-11.5
			c30.7-60.9,61.2-121.9,91.6-183c0.7-1.1,1.3-2.2,1.7-3.4c5.3-19.7,28.3-25.1,45.3-13.2c36.2,25.2,76.4,43.4,113.5,67
			c32.5,20.6,64.6,41.9,96.9,62.9c7.1,4.6,2.7,10.8,1,15.3c-9.3,23.3-31.4,35.1-56.3,31.3c-30.3-4.7-58.4-16.2-86.3-28.3
			c-16.6-7.2-32.9-15.5-49.4-23.1c-2.1-1-4.8-0.7-7.1-1.2c-1.9-0.5-4.2-0.9-5.5-2.1c-6.4-6.3-12.6-13-18.9-19.6
			c1.2,11.8,9.7,19.1,18.2,26.9c-2,3.5-3.7,7.1-5.9,10.4c-5.8,8.8-6.5,16.3,0.5,24.1c5.9,6.7,12.9,12.4,20.6,17
			c59.3,34.4,99.7,85.1,127.6,146.6c5.2,11.5,7.4,24.4,10.8,36.8c0.7,2.4,0.3,5,0.5,8.5C551.2,687.6,544.6,687.7,538,687.5z
			 M757.2,646.9c-16,35.9-32.9,71.5-49.2,107.3c-1.9,4.2-2.9,8.8-3,13.5c-0.2,53.9-0.1,107.9-0.2,161.8c0,2.7-0.3,5.5-0.5,8.4H576.9
			V700.2c2.1-0.4,4.7-0.1,6.1-1.2c2-1.7,4.1-4.4,4.2-6.7c0-1.6-3.4-4.2-5.5-4.5c-5-0.7-10.1-0.2-15.6-0.2c0-7.9,0.2-15.1,0-22.3
			c-1-31.6-13.9-58.8-31.7-84c-25.8-36.5-59.5-66.7-98.7-88.2c-8.1-4.7-15.7-10.3-22.4-16.8c-5.6-5.2-7.6-12.3-3.8-20
			c2.2-4.5,4.6-5.4,9.6-3.1c29.9,13.3,59.7,26.7,90,38.8c13.4,5.3,27.8,8.2,42,11.1c23.5,4.8,42.8-3.5,58.4-21.3
			c0.7-0.8,1.2-1.7,2.4-3.4c9.3,24.5,36.6,44.1,61.2,45.3c-1.2,13.2-3.4,26.5-3.4,39.7c-0.1,27.4,15.3,48.5,39.2,55.5
			c20,5.9,37.5-0.7,53.8-11.7c3.5-2.4,6.7-5.1,10.1-7.7l1.8,0.8C768.7,615.9,763.8,631.8,757.2,646.9L757.2,646.9z M821.2,475.7
			c-3.1,10.2-7.7,19.9-11.9,29.7c-7.2,17.1-14.4,34.3-22,51.2c-9,20-23.1,35.4-42.8,45.2c-29.1,14.5-57-0.9-60.9-33.3
			c-0.4-3.6-0.8-7.2-1.2-10.8l-0.6-0.2c2.1-10.9,4.1-21.8,6.4-32.6c0.7-2.7,1.9-5.2,3.6-7.4c23.9-31.6,47.9-63,71.8-94.6
			c2.4-3.2,4.4-3.8,7.9-1.6c12.7,7.9,25.8,15.2,38.3,23.4C821.8,452.6,825.4,461.9,821.2,475.7L821.2,475.7z"/>
		<path class="st1" d="M524.9,835c-1.9-0.1-3.8-0.4-5.7-0.9c-19.8-3.9-33-15-36.9-35.2c-1.8-9.4-2.2-19.1-3.1-28.6
			c-1.3-13.2-1.3-26.6-3.8-39.5c-5.4-28.7-24.7-44-52.6-43.2c-3.8,0.1-6.9,0.5-7.1,5.3s2.5,6.3,6.6,6.8c15.7,1.9,23.1,7.5,25.6,23
			c2.1,13.2,1.6,26.8,2.2,40.2c0.7,16-0.6,32.3,2.3,47.8c6.6,35.8,42.1,62.3,78.2,59.5c0-9.7-0.2-19,0.1-28.4
			C531,837.2,529.6,834.9,524.9,835z"/>
		<path class="st1" d="M696.8,687.8c-12.5-0.9-24.3,1.2-34.7,8.8c-15.7,11.5-20.6,28.5-22.3,46.5c-1.5,15.3-1.4,30.8-2.8,46.1
			c-2.2,24.8-14.4,39.2-36.5,44.5c-4.3,1-8.7,1.6-13.2,2.4v34.9c4.9-0.6,9.1-1,13.3-1.7c21.5-4.1,40.4-12.7,53.1-31.5
			c13.1-19.4,15.3-41.3,14.4-63.9c-0.5-12.6-1.2-25.3-0.6-37.8c0.5-7.2,2-14.4,4.6-21.1c3.5-9.5,11.2-14.2,21.2-15.1
			c1.7-0.1,4,0.1,4.9-0.9c1.7-1.8,3.5-4.3,3.5-6.5C701.5,690.7,698.6,687.9,696.8,687.8z"/>
	</g>
	<g id="Movimiento">
		<g class="st2">
			<path class="st1" d="M229,879.9L204.2,909l35.1-11.9l2.6,2.2l-6.2,36.4l24.7-28.9l5.5,4.7l-34.1,39.9l-4.7-4l7.3-42.3l-40.4,14
				l-4.7-4l34.1-40L229,879.9z"/>
		</g>
		<g class="st2">
			<path class="st1" d="M205.2,860.4c1.1,4.7,0.9,9.3-0.6,13.9c-1.5,4.5-4.1,8.5-7.9,11.8c-3.8,3.3-8,5.4-12.7,6.3
				c-4.7,0.9-9.3,0.5-13.8-1.1c-4.5-1.7-8.6-4.5-12.1-8.4c-3.5-3.9-5.7-8.3-6.8-13c-1.1-4.7-0.9-9.3,0.6-13.8
				c1.5-4.5,4.1-8.4,7.9-11.8c3.8-3.4,8.1-5.5,12.7-6.4c4.6-0.9,9.2-0.5,13.8,1.1c4.6,1.7,8.6,4.4,12,8.4
				C201.9,851.3,204.2,855.7,205.2,860.4z M184.6,845.7c-3.3-1.2-6.8-1.4-10.2-0.7c-3.5,0.7-6.6,2.3-9.5,4.8c-2.9,2.5-4.8,5.4-6,8.8
				c-1.1,3.4-1.3,6.8-0.6,10.2c0.7,3.5,2.3,6.6,4.9,9.5c2.5,2.9,5.5,4.9,8.9,6.1c3.4,1.2,6.8,1.4,10.3,0.7s6.6-2.3,9.5-4.8
				c2.9-2.5,4.8-5.4,6-8.8c1.1-3.4,1.3-6.8,0.6-10.3c-0.7-3.5-2.4-6.7-4.9-9.6C190.8,848.9,187.9,846.9,184.6,845.7z"/>
		</g>
		<g class="st2">
			<path class="st1" d="M105.8,811.5l56.5-10.3l4.2,6.2L135.8,856l-4.5-6.7l25.2-39.8l-46.5,8.3L105.8,811.5z"/>
		</g>
		<g class="st2">
			<path class="st1" d="M101.2,803.3l-3.8-6.5l45.7-26.3l3.8,6.5L101.2,803.3z"/>
		</g>
		<g class="st2">
			<path class="st1" d="M116.1,713.9l-34.8,15.4l36.6,4.5l1.4,3.1l-21.2,29.9l34.6-15.2l2.9,6.6l-47.8,21l-2.5-5.6l24.8-34.7L68,734
				l-2.5-5.6l47.8-21.1L116.1,713.9z"/>
		</g>
		<g class="st2">
			<path class="st1" d="M59.1,709.4l-2.3-7.1l49.9-16.3l2.3,7.1L59.1,709.4z"/>
		</g>
		<g class="st2">
			<path class="st1" d="M87.1,636.4l6.3-1.5l8.8,37l-50.9,12.1L42.7,648l6.3-1.5l6.8,28.7l15.6-3.7l-6.1-25.5l6.2-1.5l6.1,25.5
				l16.4-3.9L87.1,636.4z"/>
		</g>
		<g class="st2">
			<path class="st1" d="M34.4,585.4l52-5.8l0.7,6.1l-35.3,35.5l38.8-4.3l0.8,7.4l-52,5.8l-0.7-6.1L74,588.5l-38.8,4.3L34.4,585.4z"
				/>
		</g>
		<g class="st2">
			<path class="st1" d="M39.8,554.7v18h-6.5v-43.4h6.5v18h46v7.4H39.8z"/>
		</g>
		<g class="st2">
			<path class="st1" d="M84.2,513.7c-2.8,4-6.3,6.9-10.6,8.9c-4.3,2-9,2.6-14,2.1c-5-0.6-9.4-2.3-13.2-5.1c-3.8-2.9-6.6-6.5-8.4-11
				c-1.8-4.5-2.5-9.3-1.9-14.6c0.6-5.2,2.3-9.8,5-13.7c2.8-4,6.3-6.9,10.6-8.8c4.3-1.9,9-2.6,14-2.1c5,0.6,9.5,2.3,13.2,5.1
				c3.8,2.8,6.6,6.5,8.4,10.9c1.8,4.5,2.5,9.3,1.9,14.5C88.6,505.1,86.9,509.7,84.2,513.7z M81.1,488.6c-1.4-3.2-3.5-5.9-6.4-8
				c-2.8-2.1-6.2-3.4-9.9-3.8c-3.8-0.4-7.3,0.1-10.5,1.5c-3.2,1.4-5.9,3.6-8,6.4c-2.1,2.9-3.3,6.2-3.7,10c-0.4,3.8,0.1,7.4,1.4,10.6
				c1.4,3.3,3.5,6,6.4,8.1c2.9,2.1,6.2,3.4,9.9,3.8c3.8,0.4,7.3-0.1,10.5-1.5c3.2-1.4,5.9-3.6,8-6.5c2.1-2.9,3.3-6.3,3.7-10.1
				C83,495.3,82.5,491.8,81.1,488.6z"/>
		</g>
		<g class="st2">
			<path class="st1" d="M103,404.8l6.3,1.8l-10.7,36.6l-50.4-14.7L58.6,393l6.3,1.8l-8.3,28.4l15.5,4.5l7.4-25.3l6.1,1.8l-7.4,25.3
				l16.3,4.7L103,404.8z"/>
		</g>
		<g class="st2">
			<path class="st1" d="M113.3,392.4c-2.5,3-5.1,5-7.7,6.2l-4.4-4.8c2.4-1.2,4.8-3,7-5.5c2.2-2.5,4-5.3,5.2-8.3
				c1.7-4,2.2-7.4,1.6-9.9c-0.6-2.6-2-4.3-4.3-5.2c-1.7-0.7-3.3-0.7-4.8,0c-1.5,0.7-2.8,1.7-4.1,3.1c-1.2,1.4-2.8,3.4-4.7,6
				c-2.4,3.3-4.5,5.9-6.3,7.8c-1.8,1.9-4,3.3-6.4,4.1c-2.5,0.9-5.3,0.6-8.4-0.6c-2.6-1.1-4.7-2.7-6.2-4.9c-1.5-2.2-2.4-5-2.5-8.3
				c-0.1-3.3,0.7-7,2.4-11.2c1.2-2.9,2.7-5.6,4.6-8.1c1.9-2.5,3.9-4.4,6.1-5.9l4.6,4.6c-2.1,1.5-4,3.3-5.6,5.3
				c-1.6,2.1-2.9,4.2-3.8,6.4c-1.6,4-2.1,7.2-1.5,9.8c0.6,2.6,2.1,4.3,4.4,5.2c1.7,0.7,3.3,0.7,4.8,0c1.5-0.7,2.9-1.7,4.1-3.2
				c1.3-1.4,2.8-3.4,4.6-6c2.4-3.3,4.5-5.9,6.3-7.8c1.8-1.9,3.9-3.2,6.4-4.1c2.5-0.9,5.2-0.7,8.3,0.6c2.6,1,4.6,2.7,6.2,5
				c1.5,2.3,2.4,5.1,2.4,8.4c0.1,3.3-0.7,7.1-2.4,11.2C117.9,386.1,115.9,389.4,113.3,392.4z"/>
		</g>
		<g class="st2">
			<path class="st1" d="M94.3,324.9L86,341l-5.8-3l20-38.7l5.8,3l-8.3,16l40.9,21.2l-3.4,6.6L94.3,324.9z"/>
		</g>
		<g class="st2">
			<path class="st1" d="M148.6,311.1c-5.5,1-11.4-0.6-17.6-4.8l-24.8-16.7l4.2-6.2l24.5,16.6c9.3,6.3,16.8,5.4,22.3-2.8
				c2.7-4,3.6-7.8,2.7-11.5c-0.9-3.7-3.7-7.1-8.4-10.3L127,258.7l4.1-6l24.8,16.7c6.3,4.2,10,9.1,11.1,14.5
				c1.1,5.5-0.3,11.1-4.2,16.9C158.8,306.7,154.1,310.1,148.6,311.1z"/>
		</g>
		<g class="st2">
			<path class="st1" d="M143.5,236.5l14.6-16.6c3.7-4.2,7.7-7.1,12.2-8.9c4.5-1.8,9-2.2,13.6-1.4c4.5,0.8,8.8,3,12.6,6.4
				c3.9,3.4,6.5,7.3,7.9,11.7c1.4,4.4,1.5,8.9,0.3,13.6c-1.2,4.7-3.6,9.1-7.3,13.3l-14.6,16.6L143.5,236.5z M192.3,250.6
				c2.8-3.2,4.7-6.5,5.5-10c0.9-3.5,0.8-6.9-0.3-10.2c-1.1-3.3-3.1-6.2-6-8.8c-2.9-2.6-6.1-4.2-9.5-4.8c-3.4-0.7-6.8-0.3-10.1,1
				c-3.4,1.3-6.5,3.6-9.3,6.8l-9.4,10.6l29.6,26L192.3,250.6z"/>
		</g>
		<g class="st2">
			<path class="st1" d="M187.9,188.2l5.5-5.2l36.2,38.3l-5.5,5.2L187.9,188.2z"/>
		</g>
		<g class="st2">
			<path class="st1" d="M258.1,180.4l-21.8,17.3l3.6,13.8l-6,4.8l-14-55.7l5.8-4.6l51.2,26.2l-6.1,4.9L258.1,180.4z M252.4,177.3
				l-24.8-13l7.1,27.1L252.4,177.3z"/>
		</g>
		<g class="st2">
			<path class="st1" d="M294,110l27.3,45.2l-5.3,3.2l-47.5-17.3l20.4,33.7l-6.5,3.9l-27.3-45.2l5.3-3.2l47.5,17.3l-20.4-33.7
				L294,110z"/>
		</g>
		<g class="st2">
			<path class="st1" d="M324.1,102.7l-16.4,7.6l-2.7-5.9l39.5-18.2l2.7,5.9l-16.4,7.6l19.3,41.8l-6.8,3.1L324.1,102.7z"/>
		</g>
		<g class="st2">
			<path class="st1" d="M355.1,82.5l7.1-2.6l18.4,49.4l-7.1,2.6L355.1,82.5z"/>
		</g>
		<g class="st2">
			<path class="st1" d="M379.7,73.7l7.2-2.1l12.9,44.1l27.3-8l1.8,6.3l-34.5,10.1L379.7,73.7z"/>
		</g>
		<g class="st2">
			<path class="st1" d="M484.8,56.1c4.3,2.7,6.9,6.8,7.7,12.5c0.8,5.6-0.5,10.3-3.9,14.1c-3.4,3.8-8.5,6.1-15.2,7.1l-12.8,1.8
				l2.2,15.7l-7.4,1.1l-7.4-52l20.3-2.9C474.9,52.6,480.5,53.5,484.8,56.1z M482.5,78.8c2.2-2.4,3-5.4,2.5-9.2
				c-0.5-3.8-2.2-6.5-4.9-8.1c-2.8-1.7-6.5-2.1-11.2-1.5l-12.6,1.8l3.3,23.3l12.6-1.8C476.9,82.7,480.3,81.2,482.5,78.8z"/>
		</g>
		<g class="st2">
			<path class="st1" d="M516.8,98.9c-4.3-2.3-7.6-5.5-10.1-9.5s-3.7-8.6-3.8-13.7c-0.1-5.1,1.1-9.6,3.5-13.8
				c2.4-4.1,5.7-7.4,9.9-9.7c4.2-2.4,9-3.6,14.3-3.6c5.3-0.1,10,1.1,14.3,3.3c4.3,2.3,7.6,5.5,10.1,9.5c2.4,4.1,3.7,8.6,3.7,13.7
				c0.1,5.1-1.1,9.7-3.5,13.8c-2.4,4.1-5.7,7.3-9.9,9.7c-4.2,2.4-9,3.6-14.2,3.6C525.9,102.3,521.1,101.2,516.8,98.9z M541.5,92.8
				c3.1-1.8,5.5-4.2,7.2-7.3c1.7-3.1,2.6-6.5,2.6-10.3c0-3.8-1-7.2-2.8-10.3c-1.8-3.1-4.3-5.4-7.3-7.2c-3.1-1.7-6.6-2.6-10.4-2.5
				s-7.3,0.9-10.4,2.7c-3.1,1.8-5.5,4.2-7.3,7.3c-1.7,3.1-2.6,6.5-2.6,10.3c0,3.8,1,7.2,2.8,10.3c1.8,3.1,4.3,5.4,7.4,7.2
				c3.1,1.7,6.6,2.6,10.5,2.5S538.4,94.6,541.5,92.8z"/>
		</g>
		<g class="st2">
			<path class="st1" d="M603.6,106.7l-9.3-17.3c-1.4-0.1-2.5-0.2-3.3-0.2l-12.8-1.6l-1.9,15.8l-7.4-0.9l6.3-52l20.3,2.5
				c6.7,0.8,11.8,3.1,15.3,6.8c3.5,3.7,4.9,8.4,4.2,14c-0.5,4-1.9,7.3-4.2,9.9c-2.3,2.6-5.4,4.3-9.2,5.1l10.2,18.9L603.6,106.7z
				 M602.7,81.1c2.7-1.7,4.3-4.5,4.8-8.2c0.5-3.8-0.4-6.8-2.7-9.1c-2.2-2.3-5.7-3.7-10.4-4.3l-12.6-1.5l-2.8,23.4l12.6,1.5
				C596.3,83.4,600,82.8,602.7,81.1z"/>
		</g>
		<g class="st2">
			<path class="st1" d="M654.8,63.7l7.2,2l-12.4,44.1l27.3,7.7l-1.8,6.3l-34.5-9.7L654.8,63.7z"/>
		</g>
		<g class="st2">
			<path class="st1" d="M718.3,126.3l-26-10.3l-10.2,10.1l-7.2-2.9l41.5-40l6.9,2.7l2.8,57.7l-7.3-2.9L718.3,126.3z M718,119.8
				l-1-28.1L697,111.4L718,119.8z"/>
		</g>
		<g class="st2">
			<path class="st1" d="M804.9,133.3c1.7,4.8,1.1,9.6-1.8,14.5c-2.9,4.9-6.9,7.8-11.9,8.6s-10.4-0.5-16.3-4l-11.2-6.6l-8.1,13.7
				l-6.5-3.8l26.8-45.2l17.6,10.4C799.4,124.4,803.2,128.5,804.9,133.3z M788.9,149.6c3.2-0.5,5.7-2.3,7.7-5.6
				c1.9-3.3,2.3-6.4,1.2-9.4c-1.1-3-3.7-5.7-7.8-8.2l-11-6.5l-12,20.3l11,6.5C782.1,149.1,785.8,150.1,788.9,149.6z"/>
		</g>
		<g class="st2">
			<path class="st1" d="M797.8,184.9c-2.2-3.2-3.6-6.2-4.1-9l5.7-3c0.5,2.6,1.7,5.3,3.5,8.1c1.8,2.8,4.1,5.2,6.7,7.1
				c3.5,2.6,6.5,4,9.1,4.1c2.6,0.1,4.6-0.8,6.1-2.8c1.1-1.4,1.5-3,1.2-4.6c-0.3-1.6-0.9-3.2-1.9-4.7c-1-1.5-2.6-3.5-4.6-6
				c-2.6-3.1-4.6-5.8-5.9-8c-1.4-2.2-2.2-4.6-2.3-7.2c-0.2-2.6,0.7-5.3,2.7-7.9c1.7-2.2,3.8-3.8,6.3-4.7c2.5-0.9,5.4-1,8.6-0.3
				c3.2,0.7,6.6,2.4,10.2,5.1c2.5,1.9,4.7,4,6.6,6.5c1.9,2.4,3.3,4.9,4.1,7.4l-5.6,3.3c-0.9-2.4-2.2-4.7-3.7-6.8
				c-1.6-2.1-3.3-3.8-5.2-5.3c-3.4-2.6-6.4-3.8-9-3.9c-2.6,0-4.7,0.9-6.2,2.9c-1.1,1.4-1.5,3-1.2,4.6c0.3,1.6,1,3.2,2,4.8
				c1,1.6,2.6,3.5,4.6,5.9c2.6,3.1,4.6,5.8,5.9,8c1.4,2.2,2.1,4.6,2.3,7.2c0.2,2.6-0.7,5.2-2.7,7.9c-1.7,2.2-3.8,3.8-6.3,4.7
				c-2.6,0.9-5.5,1-8.7,0.2c-3.2-0.8-6.6-2.5-10.2-5.2C802.7,190.9,800,188.1,797.8,184.9z"/>
		</g>
		<g class="st2">
			<path class="st1" d="M864.4,172.5l5.6,5l-34.7,39.4l-5.6-5L864.4,172.5z"/>
		</g>
		<g class="st2">
			<path class="st1" d="M854.8,231.2c-1.2-4.6-1.2-9.2,0.1-13.8c1.3-4.5,3.8-8.6,7.4-12.1c3.7-3.5,7.8-5.8,12.4-6.9
				c4.6-1.1,9.2-0.9,13.8,0.6c4.6,1.5,8.7,4.1,12.3,7.9c2.8,3,4.9,6.1,6.3,9.5c1.4,3.4,1.9,6.9,1.6,10.5l-6.8-0.2
				c0.3-5.7-1.6-10.7-5.7-14.9c-2.7-2.8-5.8-4.7-9.2-5.8c-3.4-1.1-6.9-1.2-10.3-0.3c-3.4,0.8-6.5,2.6-9.3,5.2
				c-2.7,2.6-4.6,5.6-5.6,9c-1,3.4-1,6.8-0.1,10.3c0.9,3.5,2.7,6.6,5.4,9.4c4,4.2,8.9,6.3,14.7,6.3l0,6.8c-3.6,0.1-7.1-0.5-10.5-2
				c-3.4-1.5-6.5-3.7-9.3-6.7C858.5,240.1,856.1,235.9,854.8,231.2z"/>
		</g>
		<g class="st2">
			<path class="st1" d="M889.6,269.9c-0.7-4.8-0.1-9.4,1.7-13.8c1.8-4.4,4.8-8.1,8.8-11.1c4-3,8.4-4.8,13.2-5.3s9.3,0.2,13.7,2.2
				s8.2,5.1,11.4,9.4c3.2,4.2,5.1,8.7,5.8,13.5c0.7,4.8,0.1,9.4-1.7,13.7c-1.8,4.4-4.8,8.1-8.9,11.1c-4.1,3.1-8.5,4.9-13.2,5.4
				c-4.7,0.5-9.3-0.2-13.7-2.2c-4.4-2-8.2-5.1-11.3-9.3C892.2,279.2,890.3,274.7,889.6,269.9z M909.1,286.2
				c3.2,1.4,6.6,1.9,10.2,1.5c3.5-0.4,6.8-1.8,9.9-4.1c3-2.3,5.3-5.1,6.7-8.3c1.4-3.3,1.9-6.7,1.4-10.2c-0.4-3.5-1.8-6.8-4.1-9.9
				c-2.3-3.1-5.1-5.3-8.4-6.8c-3.3-1.5-6.7-2-10.2-1.5c-3.5,0.4-6.8,1.8-9.8,4.1c-3,2.3-5.3,5.1-6.7,8.3c-1.4,3.3-1.9,6.7-1.4,10.2
				c0.5,3.5,1.9,6.9,4.2,9.9C903.1,282.6,905.9,284.8,909.1,286.2z"/>
		</g>
		<g class="st2">
			<path class="st1" d="M962.9,288.1l3.8,6.5l-40,23l14.2,24.7l-5.7,3.3l-18-31.3L962.9,288.1z"/>
		</g>
		<g class="st2">
			<path class="st1" d="M944.4,358.5c0.4-4.8,2.1-9.2,4.9-13.1c2.8-3.9,6.5-6.8,11.2-8.8c4.6-2,9.3-2.7,14.1-2.1
				c4.7,0.6,9,2.4,12.9,5.4s6.8,6.9,8.9,11.8c2.1,4.8,2.9,9.7,2.5,14.5c-0.4,4.8-2.1,9.2-4.8,13c-2.8,3.8-6.5,6.8-11.2,8.8
				s-9.4,2.8-14.1,2.2c-4.7-0.6-9-2.4-12.8-5.3c-3.8-3-6.8-6.9-8.9-11.7C944.8,368.2,943.9,363.4,944.4,358.5z M959.6,379
				c2.8,2.1,6,3.4,9.6,3.8c3.5,0.4,7.1-0.2,10.6-1.7c3.5-1.5,6.3-3.7,8.4-6.6c2.1-2.9,3.4-6.1,3.8-9.6c0.4-3.5-0.2-7.1-1.7-10.6
				c-1.5-3.5-3.7-6.4-6.6-8.6c-2.9-2.2-6.1-3.5-9.6-3.9c-3.5-0.4-7.1,0.2-10.6,1.7c-3.5,1.5-6.3,3.7-8.4,6.6
				c-2.1,2.9-3.4,6.1-3.7,9.7c-0.4,3.6,0.2,7.1,1.8,10.7C954.6,374,956.8,376.8,959.6,379z"/>
		</g>
		<g class="st2">
			<path class="st1" d="M996.5,435.6l1.9,6.9l-19.7,5.5c-2.8-1.9-5.2-4.4-7.2-7.4c-2-3-3.6-6.3-4.6-9.9c-1.4-5.1-1.6-10-0.5-14.7
				c1.1-4.7,3.3-8.8,6.5-12.2c3.3-3.4,7.3-5.8,12.2-7.2c4.9-1.4,9.6-1.5,14.2-0.2c4.6,1.2,8.6,3.6,11.9,7.1
				c3.4,3.5,5.8,7.8,7.2,12.9c1.1,4,1.5,7.9,1.1,11.5c-0.4,3.7-1.5,7-3.4,10l-5.7-3.2c2.8-5.1,3.3-10.5,1.7-16.3
				c-1.1-3.8-2.9-7.1-5.4-9.6c-2.5-2.6-5.5-4.3-8.9-5.2c-3.4-0.9-7-0.8-10.7,0.2c-3.6,1-6.7,2.8-9.2,5.4s-4.1,5.6-4.9,9.1
				c-0.8,3.5-0.7,7.2,0.4,11c1.3,4.5,3.5,8.1,6.6,10.9L996.5,435.6z"/>
		</g>
		<g class="st2">
			<path class="st1" d="M1029.6,452.3l1.4,7.4l-51.5,10l-1.4-7.4L1029.6,452.3z M1045,457.8l1.7,9l-12-10.5l-1.3-6.6L1045,457.8z"/>
		</g>
		<g class="st2">
			<path class="st1" d="M996,516.3l-2.8-27.6l-13.6-4.4l-0.8-7.6l54.4,18.3l0.7,7.4l-49.6,28.9l-0.8-7.8L996,516.3z M1001.7,513.1
				l24.3-13.8l-26.6-8.6L1001.7,513.1z"/>
		</g>
		<g class="st2">
			<path class="st1" d="M986.9,566.9c2.6-4.1,6-7.2,10.2-9.4c4.2-2.2,8.9-3.1,14-2.8c5.1,0.3,9.6,1.8,13.5,4.4
				c3.9,2.6,6.9,6.2,9,10.6c2.1,4.4,2.9,9.2,2.6,14.5c-0.2,4.1-1.2,7.8-2.7,11.1c-1.6,3.3-3.8,6.1-6.6,8.3l-4.4-5.2
				c4.4-3.7,6.8-8.5,7.1-14.4c0.2-3.9-0.4-7.5-2-10.7c-1.6-3.3-3.8-5.9-6.8-7.8c-3-2-6.4-3.1-10.2-3.3c-3.8-0.2-7.3,0.5-10.5,2
				c-3.2,1.6-5.7,3.9-7.7,7c-1.9,3-3,6.5-3.3,10.4c-0.4,5.9,1.5,10.9,5.4,15.2l-5,4.6c-2.6-2.6-4.4-5.6-5.6-9.1
				c-1.2-3.5-1.7-7.3-1.4-11.4C982.9,575.7,984.3,571,986.9,566.9z"/>
		</g>
		<g class="st2">
			<path class="st1" d="M1032.2,617.8l-1,7.4l-52-7.4l1-7.4L1032.2,617.8z"/>
		</g>
		<g class="st2">
			<path class="st1" d="M975,671.2l-6.4-1.4l8.4-37.3l51.5,11.6l-8.2,36.3l-6.4-1.4l6.5-29l-15.8-3.5l-5.8,25.8l-6.3-1.4l5.8-25.8
				l-16.6-3.7L975,671.2z"/>
		</g>
		<g class="st2">
			<path class="st1" d="M999.7,740.2l-49.4-17.9l2.1-5.8l47.5-16.3l-36.8-13.3l2.6-7.1l49.4,17.9l-2.1,5.8l-47.5,16.3l36.8,13.3
				L999.7,740.2z"/>
		</g>
		<g class="st2">
			<path class="st1" d="M981.4,765.1l7.9-16.2l5.9,2.9l-19.1,39.1l-5.9-2.9l7.9-16.2l-41.4-20.2l3.3-6.7L981.4,765.1z"/>
		</g>
		<g class="st2">
			<path class="st1" d="M972.4,801.4l-3.8,6.5l-45.2-26.3l3.8-6.5L972.4,801.4z M980.3,815.6l-4.6,7.9l-2.1-15.7l3.4-5.8
				L980.3,815.6z"/>
		</g>
		<g class="st2">
			<path class="st1" d="M947,825.3l-15-10.4l-15,21.6l-5.3-3.7l15-21.6l-17.4-12.1l4.3-6.2l43.1,29.9l-21.1,30.4l-5.4-3.7L947,825.3
				z"/>
		</g>
		<g class="st2">
			<path class="st1" d="M927.2,863.9l-4.7,5.9l-41-33.1l4.7-5.9L927.2,863.9z"/>
		</g>
		<g class="st2">
			<path class="st1" d="M868,856.7c4.6-1.4,9.2-1.6,13.8-0.5c4.6,1.1,8.7,3.4,12.4,6.9c3.7,3.5,6.1,7.5,7.4,12.1
				c1.3,4.5,1.3,9.1,0,13.8c-1.3,4.7-3.7,8.9-7.3,12.7c-2.8,3-5.9,5.2-9.3,6.7c-3.3,1.5-6.8,2.2-10.4,2l0-6.8
				c5.7,0,10.6-2.1,14.7-6.3c2.7-2.8,4.5-6,5.4-9.4s0.9-6.9-0.1-10.3c-1-3.4-2.9-6.4-5.6-9c-2.7-2.6-5.8-4.4-9.3-5.2
				c-3.4-0.8-6.9-0.7-10.3,0.3c-3.4,1.1-6.5,3-9.2,5.8c-4,4.2-5.9,9.2-5.7,15l-6.8,0.3c-0.3-3.6,0.2-7.1,1.6-10.5
				c1.4-3.4,3.4-6.6,6.3-9.6C859.3,860.8,863.4,858.2,868,856.7z"/>
		</g>
		<g class="st2">
			<path class="st1" d="M818.8,916.2l21.5-17.9l-4-13.8l5.9-4.9l15.3,55.7l-5.7,4.8l-52-25.2l6.1-5L818.8,916.2z M824.7,919.2
				l25.2,12.6l-7.7-27.1L824.7,919.2z"/>
		</g>
	</g>
</g>
</svg>
