<?xml version="1.0" encoding="utf-8"?>
<!-- Generator: Adobe Illustrator 24.0.2, SVG Export Plug-In . SVG Version: 6.00 Build 0)  -->
<svg version="1.1" id="Portada" xmlns="http://www.w3.org/2000/svg" xmlns:xlink="http://www.w3.org/1999/xlink" x="0px" y="0px"
	 viewBox="0 0 2316.9 893.7" style="enable-background:new 0 0 2316.9 893.7;" xml:space="preserve">
<style type="text/css">
	.st0{fill:#004AAD;}
	.st1{fill:#FFFFFF;}
	.st2{enable-background:new    ;}
</style>
<title>hero</title>
<rect id="Fondo" y="1" class="st0" width="2316.9" height="893.7"/>
<g>
	<g>
		<g id="Puño">
			<path class="st1" d="M2131.3,264.2c-10.8-6.3-22.1-12-33.1-18l-3.9-2.1c1.7-8.3,4.8-15.7,4.2-22.9c-0.5-6.3-4.3-12.8-8.2-18.4
				c-12.3-17.5-25.6-34.4-45.4-46.3c-1.1-0.7-1.5-3.3-1.2-4.8c2.9-13.9-0.9-25.9-12.1-36c-9.8-8.9-22-14.4-34.6-19.4
				c-20.2-8.1-39-7.8-55.5,8.3c-2.8-3.7-5-6.9-7.5-9.9c-14.1-17.4-31-31.4-56-34.6c-16.6-2.2-30.8,0-42.3,13.8
				c-24.9,30-51.5,58.9-77.2,88.4c-2.8,3.2-5.1,3.9-9.2,2.4c-5.3-1.9-10.6-3.6-16.1-4.9c-11-2.7-26.9,4.3-31.7,13.8
				c-1,2-2,4.1-3.1,6.1c-28.1,50-56.2,99.9-84.3,149.8c-2.1,3.7-1.9,6.3,0.6,9.8c41.7,58.3,83.2,116.7,124.7,175.2
				c4.6,6.2,7,13.7,7,21.4c-0.1,44.7-0.1,89.5,0,134.2c0,9.1,1.2,10.2,11.2,10.2h272.7c9.8,0,11.4-1.4,11.4-10.2
				c0-45.3,0-90.5,0.1-135.7c0.1-3.6,1-7.1,2.7-10.3c10.4-20.3,21.3-40.4,31.8-60.7c11.9-22.9,23.9-45.8,28.8-71
				c0.9-4.4,1.2-9,3.1-13c8.2-16.9,17-33.5,25.3-50.3c4.7-9.6,9.8-19.1,13-29.1C2151.5,284.9,2146,272.8,2131.3,264.2z
				 M2037.9,165.4c4.1,2.9,8,5.3,11.4,8.2c13.3,11.6,24.1,25,33.6,39.2c5.7,8.5,4.7,16.5-0.8,24.2c-4.5,6.4-9.6,12.4-14.7,18.5
				c-16.8,19.7-33.5,39.5-50.6,59c-3.2,3.6-7.8,6.5-12.3,9.1c-4.4,2.5-9.9,2.6-14.4,0.2c-7.7-3.9-15.5-7.7-22.6-12.4
				c-10.8-7.1-12.1-17.8-10-28.4c1.3-6.8,4-13.3,8-19.1c22.5-31.4,45.5-62.6,68.4-93.8C2035,168.8,2036.2,167.5,2037.9,165.4z
				 M1940.8,123.6c3.5-4.4,7.2-8.6,11.1-12.5c8.6-8.7,19.7-11.6,31.4-7.3c12.4,4.5,24.7,9.9,35.6,16.8c15.7,9.9,17.7,25.6,7.2,40.1
				c-25.1,34.4-50.3,68.8-75.9,103.9l-81.2-47.2c8-10.4,15.7-20.6,23.5-30.8C1908.6,165.6,1924.6,144.6,1940.8,123.6L1940.8,123.6z
				 M1797.9,135.3c16.6-19,33.7-37.7,49.8-57c7.4-8.8,17.3-8.3,27.1-7.5c15,1.3,27.5,8.1,37.5,17.8c6.2,6,11.8,12.6,16.7,19.7
				c1.8,2.6,1.9,7.9,0,10.3c-23,30.8-46.5,61.2-69.9,91.7c-0.4,0.4-0.9,0.7-1.4,1l-87.5-44.6
				C1779.7,156.1,1788.8,145.7,1797.9,135.3L1797.9,135.3z M1878.9,468.3c-3.6-0.1-6.9,0.3-7.2,4.2s2.8,5.3,6.7,5.6
				c0.8,0.1,1.5,0.2,2.8,0.3v190.9h-119.7c0.4-4.3,1.2-8.5,1.2-12.7c0.1-40.8,0-81.5,0.2-122.3c0-4.5-1.4-8.9-4.2-12.5
				c-43.4-61-86.8-122-130.2-183c-2.4-3.3-2.5-5.8-0.5-9.3c27.7-48.9,55.2-97.9,82.7-147c0.6-0.9,1.1-1.8,1.6-2.8
				c4.8-15.8,25.5-20.1,40.9-10.6c32.7,20.3,69,34.9,102.5,53.8c29.3,16.6,58.3,33.7,87.5,50.5c6.4,3.7,2.5,8.7,0.9,12.3
				c-8.3,18.7-28.4,28.2-50.9,25.1c-27.4-3.8-52.7-13-77.9-22.7c-15-5.8-29.7-12.4-44.6-18.5c-1.9-0.8-4.3-0.5-6.4-1
				c-1.7-0.4-3.8-0.7-5-1.7c-5.8-5.1-11.4-10.4-17.1-15.7c1.1,9.5,8.8,15.3,16.4,21.6c-1.8,2.8-3.3,5.7-5.3,8.4
				c-5.3,7.1-5.9,13.1,0.4,19.3c5.5,5.5,11.7,10.1,18.6,13.7c53.5,27.6,90,68.4,115.2,117.8c4.7,9.3,6.7,19.6,9.8,29.5
				c0.6,1.9,0.3,4,0.4,6.8C1890.8,468.3,1884.8,468.4,1878.9,468.3L1878.9,468.3z M2076.7,435.6c-14.4,28.9-29.6,57.4-44.3,86.2
				c-1.7,3.3-2.7,7-2.8,10.8c-0.2,43.3-0.1,86.7-0.1,130c0,2.2-0.3,4.4-0.4,6.8H1914V478.5c1.9-0.3,4.3-0.1,5.5-1
				c1.8-1.4,3.8-3.5,3.8-5.4c0-1.3-3.1-3.4-5-3.6c-4.5-0.5-9.2-0.2-14.1-0.2c0-6.3,0.2-12.1,0-17.9c-0.9-25.4-12.5-47.2-28.6-67.4
				c-23.6-29.6-53.3-53.3-89.1-70.9c-7.3-3.7-14.1-8.2-20.3-13.5c-5-4.2-6.8-9.9-3.4-16c2-3.6,4.2-4.3,8.7-2.5
				c27,10.7,53.9,21.5,81.3,31.2c12.1,4.3,25.1,6.6,37.9,8.9c21.3,3.8,38.7-2.8,52.7-17.1c0.6-0.6,1.1-1.4,2.2-2.8
				c8.4,19.7,33.1,35.4,55.2,36.4c-1.1,10.6-3,21.3-3.1,31.9c-0.1,22,13.8,39,35.4,44.6c18.1,4.7,33.8-0.5,48.6-9.4
				c3.1-1.9,6.1-4.1,9.1-6.2l1.6,0.7C2087.2,410.7,2082.8,423.5,2076.7,435.6L2076.7,435.6z M2134.6,298.1c-2.8,8.2-7,16-10.7,23.9
				c-6.5,13.8-13,27.5-19.9,41.2c-8.1,16-20.9,28.5-38.6,36.3c-26.3,11.7-51.5-0.7-55-26.7c-0.4-2.9-0.7-5.8-1-8.7l-0.6-0.2
				c1.9-8.7,3.7-17.5,5.8-26.2c0.6-2.2,1.8-4.2,3.3-5.9c21.6-25.4,43.3-50.6,64.8-76c2.2-2.6,3.9-3.1,7.1-1.3
				c11.5,6.4,23.3,12.3,34.6,18.8C2135.2,279.6,2138.4,287,2134.6,298.1L2134.6,298.1z"/>
			<path class="st1" d="M1867,586.7c-1.7-0.1-3.5-0.3-5.1-0.7c-17.8-3.1-29.8-12-33.3-28.3c-1.7-7.5-2-15.3-2.8-23
				c-1.1-10.6-1.2-21.3-3.4-31.7c-4.9-23.1-22.3-35.4-47.5-34.7c-3.4,0.1-6.2,0.4-6.4,4.3s2.3,5.1,6,5.5c14.2,1.5,20.9,6,23.1,18.4
				c1.9,10.6,1.5,21.5,2,32.3c0.6,12.8-0.5,25.9,2.1,38.4c6,28.8,38,50,70.6,47.8c0-7.8-0.2-15.3,0.1-22.8
				C1872.5,588.5,1871.3,586.7,1867,586.7z"/>
			<path class="st1" d="M2022.3,468.5c-11.2-0.7-22,1-31.3,7.1c-14.2,9.2-18.6,22.9-20.2,37.4c-1.3,12.3-1.2,24.7-2.5,37
				c-2,19.9-13,31.5-33,35.7c-3.9,0.8-7.8,1.3-11.9,1.9v28.1c4.4-0.5,8.3-0.8,12-1.4c19.4-3.3,36.5-10.2,48-25.3
				c11.8-15.6,13.8-33.2,13-51.3c-0.5-10.1-1-20.3-0.6-30.4c0.4-5.9,1.8-11.6,4.2-17c3.1-7.6,10.1-11.4,19.2-12.1
				c1.5-0.1,3.6,0.1,4.4-0.7c1.5-1.4,3.2-3.5,3.1-5.2C2026.5,470.8,2023.9,468.6,2022.3,468.5z"/>
		</g>
		<g class="st2">
			<path class="st1" d="M464.1,672.8l-0.9-155L379,644h-41.2l-83.7-122v150.8h-85.6V380.4h76.3l115.1,168.8l112.3-168.8h76.3
				l0.9,292.4H464.1z"/>
			<path class="st1" d="M877.7,608.9v63.9H614.8V380.4h256.8v63.9H706.5v49.3H852v61.8H706.5v53.5H877.7z"/>
			<path class="st1" d="M1156.1,393.6c21.8,8.8,38.7,21.3,50.5,37.6c11.8,16.3,17.8,35.4,17.8,57.4c0,22-5.9,41.1-17.8,57.2
				c-11.9,16.2-28.7,28.6-50.5,37.4c-21.8,8.8-47.6,13.2-77.2,13.2h-57.1v76.4h-92.6V380.4h149.7
				C1108.5,380.4,1134.2,384.8,1156.1,393.6z M1116.3,520.1c9.7-7.4,14.5-17.9,14.5-31.5c0-13.6-4.8-24.2-14.5-31.7
				c-9.7-7.5-24-11.3-43-11.3h-51.5v85.6h51.5C1092.3,531.2,1106.6,527.5,1116.3,520.1z"/>
			<path class="st1" d="M1344.9,659.2c-27.3-12.9-48.7-31-64.3-54.1c-15.6-23.1-23.4-49.3-23.4-78.5c0-29.2,7.8-55.4,23.4-78.5
				c15.6-23.1,37-41.1,64.3-54.1c27.3-12.9,58.1-19.4,92.4-19.4c29.9,0,56.9,4.7,80.9,14.2c24,9.5,44,23.1,59.9,40.9l-58.9,47.6
				c-21.2-22.8-46.9-34.3-77.2-34.3c-17.8,0-33.6,3.5-47.5,10.4c-13.9,7-24.6,16.8-32.3,29.4c-7.6,12.7-11.5,27.2-11.5,43.7
				c0,16.4,3.8,31,11.5,43.7c7.6,12.7,18.4,22.5,32.3,29.4c13.9,7,29.7,10.4,47.5,10.4c30.2,0,56-11.4,77.2-34.3l58.9,47.6
				c-15.9,17.8-35.9,31.5-59.9,40.9c-24,9.5-51,14.2-80.9,14.2C1402.9,678.7,1372.1,672.2,1344.9,659.2z"/>
		</g>
	</g>
	<g>
		<path class="st1" d="M98.9,833.4L98.8,804l-14.4,24.2h-5.1l-14.3-23.6v28.8H54.3v-49h9.4L82,814.9l18.1-30.5h9.3l0.1,49H98.9z"/>
		<path class="st1" d="M131.1,831c-4.1-2.2-7.3-5.2-9.6-9.1c-2.3-3.9-3.5-8.2-3.5-13c0-4.8,1.2-9.1,3.5-13c2.3-3.8,5.5-6.9,9.6-9.1
			c4.1-2.2,8.7-3.3,13.8-3.3c5.1,0,9.7,1.1,13.7,3.3c4.1,2.2,7.3,5.2,9.6,9.1c2.3,3.9,3.5,8.2,3.5,13c0,4.8-1.2,9.1-3.5,13
			c-2.3,3.8-5.5,6.9-9.6,9.1c-4.1,2.2-8.6,3.3-13.7,3.3C139.8,834.2,135.2,833.2,131.1,831z M152.7,822.6c2.3-1.3,4.2-3.2,5.5-5.6
			s2-5.1,2-8.1c0-3-0.7-5.7-2-8.1s-3.2-4.2-5.5-5.6c-2.3-1.3-4.9-2-7.8-2c-2.9,0-5.5,0.7-7.8,2c-2.3,1.3-4.2,3.2-5.5,5.6
			s-2,5.1-2,8.1c0,3,0.7,5.7,2,8.1s3.2,4.2,5.5,5.6c2.3,1.3,4.9,2,7.8,2C147.7,824.6,150.4,823.9,152.7,822.6z"/>
		<path class="st1" d="M225.7,784.4l-21.2,49h-11.2l-21.1-49h12.3l14.9,35l15.1-35H225.7z"/>
		<path class="st1" d="M229.8,784.4h11.3v49h-11.3V784.4z"/>
		<path class="st1" d="M297.3,833.4l-0.1-29.4l-14.4,24.2h-5.1l-14.3-23.6v28.8h-10.6v-49h9.4l18.3,30.5l18.1-30.5h9.3l0.1,49H297.3
			z"/>
		<path class="st1" d="M319.6,784.4h11.3v49h-11.3V784.4z"/>
		<path class="st1" d="M380.5,824.3v9.1h-37.9v-49h37v9.1h-25.8v10.6h22.8v8.8h-22.8v11.3H380.5z"/>
		<path class="st1" d="M434.4,784.4v49h-9.3l-24.4-29.8v29.8h-11.2v-49h9.4l24.4,29.8v-29.8H434.4z"/>
		<path class="st1" d="M456.2,793.6h-15.7v-9.2h42.7v9.2h-15.7v39.8h-11.3V793.6z"/>
		<path class="st1" d="M498.6,831c-4.1-2.2-7.3-5.2-9.6-9.1c-2.3-3.9-3.5-8.2-3.5-13c0-4.8,1.2-9.1,3.5-13c2.3-3.8,5.5-6.9,9.6-9.1
			c4.1-2.2,8.7-3.3,13.8-3.3c5.1,0,9.7,1.1,13.7,3.3c4.1,2.2,7.3,5.2,9.6,9.1c2.3,3.9,3.5,8.2,3.5,13c0,4.8-1.2,9.1-3.5,13
			c-2.3,3.8-5.5,6.9-9.6,9.1c-4.1,2.2-8.6,3.3-13.7,3.3C507.3,834.2,502.7,833.2,498.6,831z M520.2,822.6c2.3-1.3,4.2-3.2,5.5-5.6
			s2-5.1,2-8.1c0-3-0.7-5.7-2-8.1s-3.2-4.2-5.5-5.6c-2.3-1.3-4.9-2-7.8-2c-2.9,0-5.5,0.7-7.8,2c-2.3,1.3-4.2,3.2-5.5,5.6
			s-2,5.1-2,8.1c0,3,0.7,5.7,2,8.1s3.2,4.2,5.5,5.6c2.3,1.3,4.9,2,7.8,2C515.2,824.6,517.8,823.9,520.2,822.6z"/>
		<path class="st1" d="M605.4,824.3v9.1h-37.9v-49h37v9.1h-25.8v10.6h22.8v8.8h-22.8v11.3H605.4z"/>
		<path class="st1" d="M619.3,832.7c-3.6-1-6.5-2.4-8.7-4.1l3.9-8.5c2.1,1.5,4.6,2.8,7.5,3.7c2.9,0.9,5.8,1.4,8.7,1.4
			c3.2,0,5.6-0.5,7.1-1.4c1.5-1,2.3-2.2,2.3-3.8c0-1.2-0.5-2.1-1.4-2.9c-0.9-0.8-2.1-1.4-3.5-1.9c-1.4-0.5-3.3-1-5.8-1.5
			c-3.7-0.9-6.8-1.8-9.2-2.7c-2.4-0.9-4.4-2.3-6.1-4.3c-1.7-2-2.6-4.6-2.6-7.8c0-2.8,0.8-5.4,2.3-7.7c1.5-2.3,3.9-4.1,7-5.5
			c3.1-1.4,6.9-2,11.4-2c3.1,0,6.2,0.4,9.2,1.1c3,0.7,5.6,1.8,7.8,3.2l-3.5,8.6c-4.5-2.6-9.1-3.9-13.6-3.9c-3.2,0-5.5,0.5-7,1.5
			c-1.5,1-2.3,2.4-2.3,4.1c0,1.7,0.9,2.9,2.6,3.7s4.4,1.6,8,2.4c3.7,0.9,6.8,1.8,9.2,2.7c2.4,0.9,4.4,2.3,6.1,4.2
			c1.7,1.9,2.6,4.5,2.6,7.8c0,2.8-0.8,5.4-2.3,7.7c-1.6,2.3-3.9,4.1-7,5.5c-3.1,1.4-6.9,2-11.4,2
			C626.7,834.2,622.9,833.7,619.3,832.7z"/>
		<path class="st1" d="M668.6,793.6h-15.7v-9.2h42.7v9.2h-15.7v39.8h-11.3V793.6z"/>
		<path class="st1" d="M706.3,828.4c-3.9-3.9-5.8-9.4-5.8-16.6v-27.4h11.3v27c0,8.8,3.6,13.2,10.9,13.2c3.5,0,6.3-1.1,8.1-3.2
			c1.9-2.1,2.8-5.4,2.8-10v-27h11.2v27.4c0,7.2-1.9,12.7-5.8,16.6c-3.9,3.9-9.3,5.8-16.3,5.8S710.2,832.3,706.3,828.4z"/>
		<path class="st1" d="M756,784.4h22.3c5.3,0,10,1,14.1,3c4.1,2,7.3,4.9,9.5,8.6c2.3,3.7,3.4,8,3.4,12.9s-1.1,9.2-3.4,12.9
			c-2.3,3.7-5.4,6.5-9.5,8.6c-4.1,2-8.8,3-14.1,3H756V784.4z M777.7,824.1c4.9,0,8.8-1.4,11.7-4.1c2.9-2.7,4.4-6.4,4.4-11.1
			c0-4.7-1.5-8.4-4.4-11.1c-2.9-2.7-6.8-4.1-11.7-4.1h-10.4v30.4H777.7z"/>
		<path class="st1" d="M813.8,784.4h11.3v49h-11.3V784.4z"/>
		<path class="st1" d="M869.1,822.9h-22.8l-4.3,10.5h-11.6l21.8-49h11.2l21.9,49h-11.9L869.1,822.9z M865.5,814.3l-7.8-18.8
			l-7.8,18.8H865.5z"/>
		<path class="st1" d="M935.3,784.4v49H926l-24.4-29.8v29.8h-11.2v-49h9.4l24.4,29.8v-29.8H935.3z"/>
		<path class="st1" d="M957.1,793.6h-15.7v-9.2h42.7v9.2h-15.7v39.8h-11.3V793.6z"/>
		<path class="st1" d="M990.2,784.4h11.3v49h-11.3V784.4z"/>
		<path class="st1" d="M1013.2,784.4h11.3v39.8h24.6v9.2h-35.9V784.4z"/>
		<path class="st1" d="M1107.8,786.6c3.2,1.4,5.7,3.5,7.4,6.2c1.7,2.7,2.6,5.8,2.6,9.5c0,3.6-0.9,6.7-2.6,9.4
			c-1.7,2.7-4.2,4.7-7.4,6.2c-3.2,1.4-7,2.1-11.3,2.1h-9.9v13.5h-11.3v-49h21.2C1100.8,784.4,1104.6,785.1,1107.8,786.6z
			 M1103.6,808.5c1.8-1.5,2.7-3.6,2.7-6.3c0-2.8-0.9-4.9-2.7-6.3c-1.8-1.5-4.4-2.2-7.8-2.2h-9.2v17h9.2
			C1099.3,810.7,1101.8,809.9,1103.6,808.5z"/>
		<path class="st1" d="M1136.5,831c-4.1-2.2-7.3-5.2-9.6-9.1c-2.3-3.9-3.5-8.2-3.5-13c0-4.8,1.2-9.1,3.5-13c2.3-3.8,5.5-6.9,9.6-9.1
			c4.1-2.2,8.7-3.3,13.8-3.3c5.1,0,9.7,1.1,13.7,3.3c4.1,2.2,7.3,5.2,9.6,9.1c2.3,3.9,3.5,8.2,3.5,13c0,4.8-1.2,9.1-3.5,13
			c-2.3,3.8-5.5,6.9-9.6,9.1c-4.1,2.2-8.6,3.3-13.7,3.3C1145.2,834.2,1140.6,833.2,1136.5,831z M1158.1,822.6
			c2.3-1.3,4.2-3.2,5.5-5.6s2-5.1,2-8.1c0-3-0.7-5.7-2-8.1s-3.2-4.2-5.5-5.6c-2.3-1.3-4.9-2-7.8-2c-2.9,0-5.5,0.7-7.8,2
			c-2.3,1.3-4.2,3.2-5.5,5.6s-2,5.1-2,8.1c0,3,0.7,5.7,2,8.1s3.2,4.2,5.5,5.6c2.3,1.3,4.9,2,7.8,2
			C1153.1,824.6,1155.7,823.9,1158.1,822.6z"/>
		<path class="st1" d="M1216.8,833.4l-9.5-13.7h-0.6h-9.9v13.7h-11.3v-49h21.2c4.3,0,8.1,0.7,11.3,2.2c3.2,1.4,5.7,3.5,7.4,6.2
			c1.7,2.7,2.6,5.8,2.6,9.5c0,3.6-0.9,6.8-2.6,9.4s-4.2,4.7-7.5,6.1l11,15.8H1216.8z M1213.9,795.9c-1.8-1.5-4.4-2.2-7.8-2.2h-9.2
			v17.1h9.2c3.4,0,6-0.7,7.8-2.2c1.8-1.5,2.7-3.6,2.7-6.3C1216.6,799.4,1215.7,797.3,1213.9,795.9z"/>
		<path class="st1" d="M1256.8,784.4h11.3v39.8h24.6v9.2h-35.9V784.4z"/>
		<path class="st1" d="M1331.8,822.9h-22.8l-4.3,10.5h-11.6l21.8-49h11.2l21.9,49h-11.9L1331.8,822.9z M1328.2,814.3l-7.8-18.8
			l-7.8,18.8H1328.2z"/>
		<path class="st1" d="M1405.5,786.6c3.2,1.4,5.7,3.5,7.4,6.2c1.7,2.7,2.6,5.8,2.6,9.5c0,3.6-0.9,6.7-2.6,9.4
			c-1.7,2.7-4.2,4.7-7.4,6.2c-3.2,1.4-7,2.1-11.3,2.1h-9.9v13.5H1373v-49h21.2C1398.5,784.4,1402.3,785.1,1405.5,786.6z
			 M1401.3,808.5c1.8-1.5,2.7-3.6,2.7-6.3c0-2.8-0.9-4.9-2.7-6.3c-1.8-1.5-4.4-2.2-7.8-2.2h-9.2v17h9.2
			C1397,810.7,1399.6,809.9,1401.3,808.5z"/>
		<path class="st1" d="M1429.1,832.7c-3.6-1-6.5-2.4-8.7-4.1l3.8-8.5c2.1,1.5,4.6,2.8,7.5,3.7c2.9,0.9,5.8,1.4,8.7,1.4
			c3.2,0,5.6-0.5,7.1-1.4c1.5-1,2.3-2.2,2.3-3.8c0-1.2-0.5-2.1-1.4-2.9c-0.9-0.8-2.1-1.4-3.5-1.9c-1.4-0.5-3.3-1-5.8-1.5
			c-3.7-0.9-6.8-1.8-9.2-2.7c-2.4-0.9-4.4-2.3-6.1-4.3c-1.7-2-2.6-4.6-2.6-7.8c0-2.8,0.8-5.4,2.3-7.7c1.5-2.3,3.9-4.1,7-5.5
			s6.9-2,11.4-2c3.1,0,6.2,0.4,9.2,1.1c3,0.7,5.6,1.8,7.8,3.2l-3.5,8.6c-4.5-2.6-9.1-3.9-13.6-3.9c-3.2,0-5.5,0.5-7,1.5
			c-1.5,1-2.3,2.4-2.3,4.1c0,1.7,0.9,2.9,2.6,3.7s4.4,1.6,8,2.4c3.7,0.9,6.8,1.8,9.2,2.7c2.4,0.9,4.4,2.3,6.1,4.2
			c1.7,1.9,2.6,4.5,2.6,7.8c0,2.8-0.8,5.4-2.3,7.7c-1.6,2.3-3.9,4.1-7,5.5c-3.1,1.4-6.9,2-11.4,2
			C1436.4,834.2,1432.7,833.7,1429.1,832.7z"/>
		<path class="st1" d="M1468.9,784.4h11.3v49h-11.3V784.4z"/>
		<path class="st1" d="M1501.7,831c-4-2.2-7.2-5.2-9.5-9c-2.3-3.8-3.5-8.2-3.5-13.1c0-4.9,1.2-9.2,3.5-13.1c2.3-3.9,5.5-6.9,9.5-9
			c4-2.2,8.6-3.3,13.6-3.3c4.2,0,8.1,0.7,11.5,2.2c3.4,1.5,6.3,3.6,8.6,6.4l-7.3,6.7c-3.3-3.8-7.4-5.7-12.3-5.7c-3,0-5.7,0.7-8.1,2
			c-2.4,1.3-4.2,3.2-5.6,5.6s-2,5.1-2,8.1c0,3,0.7,5.7,2,8.1s3.2,4.2,5.6,5.6c2.4,1.3,5.1,2,8.1,2c4.9,0,9-1.9,12.3-5.8l7.3,6.7
			c-2.3,2.8-5.2,5-8.7,6.5c-3.5,1.5-7.3,2.2-11.5,2.2C1510.3,834.2,1505.8,833.2,1501.7,831z"/>
		<path class="st1" d="M1552.1,831c-4.1-2.2-7.3-5.2-9.6-9.1c-2.3-3.9-3.5-8.2-3.5-13c0-4.8,1.2-9.1,3.5-13c2.3-3.8,5.5-6.9,9.6-9.1
			c4.1-2.2,8.7-3.3,13.8-3.3c5.1,0,9.7,1.1,13.7,3.3c4.1,2.2,7.3,5.2,9.6,9.1c2.3,3.9,3.5,8.2,3.5,13c0,4.8-1.2,9.1-3.5,13
			c-2.3,3.8-5.5,6.9-9.6,9.1c-4.1,2.2-8.6,3.3-13.7,3.3C1560.7,834.2,1556.2,833.2,1552.1,831z M1573.7,822.6
			c2.3-1.3,4.2-3.2,5.5-5.6s2-5.1,2-8.1c0-3-0.7-5.7-2-8.1s-3.2-4.2-5.5-5.6c-2.3-1.3-4.9-2-7.8-2c-2.9,0-5.5,0.7-7.8,2
			c-2.3,1.3-4.2,3.2-5.5,5.6s-2,5.1-2,8.1c0,3,0.7,5.7,2,8.1s3.2,4.2,5.5,5.6c2.3,1.3,4.9,2,7.8,2
			C1568.7,824.6,1571.3,823.9,1573.7,822.6z"/>
		<path class="st1" d="M1601.2,784.4h11.3v39.8h24.6v9.2h-35.9V784.4z"/>
		<path class="st1" d="M1652.6,831c-4.1-2.2-7.3-5.2-9.6-9.1c-2.3-3.9-3.5-8.2-3.5-13c0-4.8,1.2-9.1,3.5-13c2.3-3.8,5.5-6.9,9.6-9.1
			c4.1-2.2,8.7-3.3,13.8-3.3c5.1,0,9.7,1.1,13.7,3.3c4.1,2.2,7.3,5.2,9.6,9.1c2.3,3.9,3.5,8.2,3.5,13c0,4.8-1.2,9.1-3.5,13
			c-2.3,3.8-5.5,6.9-9.6,9.1c-4.1,2.2-8.6,3.3-13.7,3.3C1661.3,834.2,1656.7,833.2,1652.6,831z M1674.2,822.6
			c2.3-1.3,4.2-3.2,5.5-5.6s2-5.1,2-8.1c0-3-0.7-5.7-2-8.1s-3.2-4.2-5.5-5.6c-2.3-1.3-4.9-2-7.8-2c-2.9,0-5.5,0.7-7.8,2
			c-2.3,1.3-4.2,3.2-5.5,5.6s-2,5.1-2,8.1c0,3,0.7,5.7,2,8.1s3.2,4.2,5.5,5.6c2.3,1.3,4.9,2,7.8,2
			C1669.2,824.6,1671.8,823.9,1674.2,822.6z"/>
		<path class="st1" d="M1734.8,808.1h10.4V828c-2.7,2-5.7,3.5-9.2,4.6c-3.5,1.1-7,1.6-10.6,1.6c-5.1,0-9.7-1.1-13.7-3.3
			s-7.2-5.2-9.6-9c-2.3-3.8-3.5-8.2-3.5-13.1c0-4.9,1.2-9.2,3.5-13.1c2.3-3.9,5.5-6.9,9.6-9c4.1-2.2,8.7-3.3,13.9-3.3
			c4.3,0,8.2,0.7,11.7,2.2c3.5,1.4,6.4,3.5,8.8,6.3l-7.3,6.7c-3.5-3.7-7.7-5.5-12.7-5.5c-3.1,0-5.9,0.7-8.3,2
			c-2.4,1.3-4.3,3.1-5.7,5.5c-1.4,2.4-2,5.1-2,8.2c0,3,0.7,5.7,2,8.1c1.4,2.4,3.2,4.2,5.6,5.6c2.4,1.3,5.1,2,8.2,2
			c3.3,0,6.2-0.7,8.8-2.1V808.1z"/>
		<path class="st1" d="M1764.4,770.3h11.8l-12.7,10.1h-8.5L1764.4,770.3z M1755.7,784.4h11.3v49h-11.3V784.4z"/>
		<path class="st1" d="M1810.9,822.9h-22.8l-4.3,10.5h-11.6l21.8-49h11.2l21.9,49h-11.9L1810.9,822.9z M1807.3,814.3l-7.8-18.8
			l-7.8,18.8H1807.3z"/>
		<path class="st1" d="M1862,831c-4-2.2-7.2-5.2-9.5-9c-2.3-3.8-3.5-8.2-3.5-13.1c0-4.9,1.2-9.2,3.5-13.1c2.3-3.9,5.5-6.9,9.5-9
			c4-2.2,8.6-3.3,13.6-3.3c4.2,0,8.1,0.7,11.5,2.2c3.4,1.5,6.3,3.6,8.6,6.4l-7.3,6.7c-3.3-3.8-7.4-5.7-12.3-5.7c-3,0-5.7,0.7-8.1,2
			c-2.4,1.3-4.2,3.2-5.6,5.6s-2,5.1-2,8.1c0,3,0.7,5.7,2,8.1s3.2,4.2,5.6,5.6c2.4,1.3,5.1,2,8.1,2c4.9,0,9-1.9,12.3-5.8l7.3,6.7
			c-2.3,2.8-5.2,5-8.7,6.5c-3.5,1.5-7.3,2.2-11.5,2.2C1870.5,834.2,1866,833.2,1862,831z"/>
		<path class="st1" d="M1903.4,784.4h11.3v49h-11.3V784.4z"/>
		<path class="st1" d="M1964.3,824.3v9.1h-37.9v-49h37v9.1h-25.8v10.6h22.8v8.8h-22.8v11.3H1964.3z"/>
		<path class="st1" d="M2018.2,784.4v49h-9.3l-24.4-29.8v29.8h-11.2v-49h9.4l24.4,29.8v-29.8H2018.2z"/>
		<path class="st1" d="M2040,793.6h-15.7v-9.2h42.7v9.2h-15.7v39.8H2040V793.6z"/>
		<path class="st1" d="M2081.9,770.3h11.8l-12.7,10.1h-8.5L2081.9,770.3z M2073.1,784.4h11.3v49h-11.3V784.4z"/>
		<path class="st1" d="M2107.4,793.5v13h22.7v9.1h-22.7v17.8h-11.3v-49h37v9.1H2107.4z"/>
		<path class="st1" d="M2140.8,784.4h11.3v49h-11.3V784.4z"/>
		<path class="st1" d="M2173.7,831c-4-2.2-7.2-5.2-9.5-9c-2.3-3.8-3.5-8.2-3.5-13.1c0-4.9,1.2-9.2,3.5-13.1c2.3-3.9,5.5-6.9,9.5-9
			c4-2.2,8.6-3.3,13.6-3.3c4.2,0,8.1,0.7,11.5,2.2c3.4,1.5,6.3,3.6,8.6,6.4l-7.3,6.7c-3.3-3.8-7.4-5.7-12.3-5.7c-3,0-5.7,0.7-8.1,2
			c-2.4,1.3-4.2,3.2-5.6,5.6s-2,5.1-2,8.1c0,3,0.7,5.7,2,8.1s3.2,4.2,5.6,5.6c2.4,1.3,5.1,2,8.1,2c4.9,0,9-1.9,12.3-5.8l7.3,6.7
			c-2.3,2.8-5.2,5-8.7,6.5c-3.5,1.5-7.3,2.2-11.5,2.2C2182.2,834.2,2177.7,833.2,2173.7,831z"/>
		<path class="st1" d="M2246.4,822.9h-22.8l-4.3,10.5h-11.6l21.8-49h11.2l21.9,49h-11.9L2246.4,822.9z M2242.8,814.3l-7.8-18.8
			l-7.8,18.8H2242.8z"/>
	</g>
</g>
</svg>
