<svg id="Layer_1" data-name="Layer 1" xmlns="http://www.w3.org/2000/svg" viewBox="0 0 1080 1080"><defs><style>.cls-1{fill:#004aad;}.cls-2,.cls-3{fill:#fff;}.cls-3{font-size:75.02px;font-family:Montserrat-Medium, Montserrat;font-weight:500;}</style></defs><title>SVG-2</title><rect id="Fondo" class="cls-1" width="1080" height="1080"/><g id="Puño"><path class="cls-2" d="M821.72,408.47c-12-7.85-24.43-15-36.67-22.44l-4.27-2.59c1.87-10.3,5.31-19.53,4.65-28.45-.58-7.83-4.77-15.94-9.09-22.85-13.63-21.82-28.35-42.88-50.26-57.63-1.24-.83-1.65-4-1.3-5.94,3.25-17.28-1-32.24-13.38-44.77-10.86-11-24.41-17.94-38.3-24.2-22.35-10.08-43.21-9.71-61.51,10.28-3.05-4.58-5.54-8.56-8.28-12.37-15.59-21.63-34.36-39-62-43-18.35-2.68-34.16,0-46.81,17.13-27.6,37.36-57.07,73.32-85.54,110-3.06,3.94-5.69,4.83-10.13,3.06a169.43,169.43,0,0,0-17.78-6.1C368.85,275.2,351.24,284,346,295.79c-1.13,2.54-2.18,5.11-3.42,7.59Q296,396.65,249.23,489.84c-2.3,4.59-2.13,7.88.64,12.23Q319.05,611,387.92,720.13a48.31,48.31,0,0,1,7.74,26.63q-.2,83.52-.06,167c0,11.29,1.31,12.63,12.4,12.63q151,0,302,0c10.86,0,12.6-1.75,12.6-12.68,0-56.32-.07-112.65.13-169a32,32,0,0,1,2.95-12.84c11.57-25.28,23.57-50.35,35.23-75.58,13.18-28.53,26.47-57.05,31.88-88.4.94-5.45,1.32-11.24,3.47-16.21,9.06-21,18.88-41.64,28.06-62.56,5.24-11.92,10.83-23.83,14.41-36.28C844.09,434.21,837.89,419.07,821.72,408.47Zm-103.46-123c4.5,3.62,8.92,6.59,12.64,10.26,14.69,14.5,26.65,31.1,37.25,48.8,6.31,10.53,5.18,20.5-.85,30.18-5,8-10.64,15.49-16.3,23-18.57,24.57-37.12,49.15-56.07,73.42-3.55,4.55-8.65,8.12-13.58,11.3a14.91,14.91,0,0,1-15.91.27c-8.52-4.88-17.2-9.63-25.06-15.46-12-8.87-13.38-22.12-11-35.38a66.78,66.78,0,0,1,8.8-23.72c24.88-39.15,50.42-77.88,75.76-116.73C715.05,289.61,716.38,288,718.26,285.44Zm-107.53-52a173.59,173.59,0,0,1,12.32-15.57c9.49-10.86,21.86-14.42,34.82-9.13,13.72,5.61,27.36,12.37,39.4,20.93,17.35,12.35,19.64,31.85,7.92,49.92C677.38,322.45,649.5,365.28,621.1,409c-30.05-19.65-59.71-39-89.91-58.77,8.82-13,17.38-25.7,26-38.35Q583.91,272.6,610.73,233.42ZM452.47,248c18.43-23.63,37.26-47,55.16-71,8.19-11,19.13-10.39,30-9.32,16.64,1.64,30.43,10.07,41.58,22.18a155.85,155.85,0,0,1,18.45,24.55c2,3.24,2.1,9.83.06,12.88-25.47,38.29-51.5,76.2-77.39,114.21a11.82,11.82,0,0,1-1.57,1.26c-32.26-18.46-64.34-36.81-96.95-55.45C432.27,273.9,442.36,260.94,452.47,248ZM542.1,662.44c-4-.09-7.63.36-8,5.21s3.06,6.57,7.37,6.93c.85.07,1.69.2,3,.37V912.63H412c.46-5.34,1.28-10.54,1.29-15.74.1-50.75,0-101.49.18-152.24a27.5,27.5,0,0,0-4.59-15.55Q336.71,615.22,264.67,501.3c-2.64-4.15-2.73-7.21-.56-11.53q46-91.41,91.62-183a19,19,0,0,0,1.73-3.43c5.27-19.7,28.28-25.07,45.27-13.24,36.22,25.21,76.44,43.4,113.52,67C548.76,377.74,580.86,399,613.16,420c7.14,4.64,2.74,10.78,1,15.28-9.25,23.25-31.44,35.13-56.34,31.29-30.32-4.67-58.41-16.16-86.25-28.27-16.66-7.24-32.88-15.47-49.38-23.06-2.11-1-4.77-.67-7.1-1.23-1.92-.47-4.22-.87-5.52-2.14-6.43-6.34-12.59-13-18.94-19.58,1.18,11.81,9.69,19.06,18.2,26.91-1.95,3.49-3.68,7.1-5.87,10.41-5.83,8.77-6.5,16.25.5,24.06a86.63,86.63,0,0,0,20.58,17c59.25,34.4,99.71,85.13,127.61,146.59,5.23,11.52,7.44,24.43,10.83,36.76.66,2.38.33,5,.5,8.45C555.31,662.48,548.7,662.58,542.1,662.44Zm219.15-40.65c-15.93,35.94-32.83,71.46-49.1,107.27a33.93,33.93,0,0,0-3.08,13.45c-.21,53.94-.13,107.89-.16,161.84,0,2.73-.28,5.46-.45,8.43H581V675.16c2.11-.37,4.72-.08,6.08-1.24,2-1.68,4.15-4.42,4.16-6.71,0-1.57-3.39-4.22-5.52-4.5-5-.67-10.14-.22-15.62-.22,0-7.89.2-15.1,0-22.3-1-31.58-13.89-58.81-31.69-84A294,294,0,0,0,439.67,468a115.14,115.14,0,0,1-22.43-16.78c-5.57-5.2-7.57-12.31-3.78-20,2.21-4.46,4.66-5.35,9.62-3.14,29.85,13.28,59.66,26.73,90,38.82,13.36,5.32,27.82,8.2,42,11.07,23.55,4.76,42.85-3.47,58.39-21.32.69-.79,1.21-1.72,2.39-3.44,9.29,24.53,36.61,44.12,61.17,45.32-1.21,13.22-3.39,26.45-3.44,39.69-.11,27.42,15.26,48.51,39.24,55.54,20,5.86,37.45-.66,53.81-11.73,3.48-2.36,6.71-5.11,10.06-7.68l1.76.84C772.78,590.77,767.94,606.69,761.25,621.79Zm64-171.16c-3.09,10.16-7.73,19.87-11.88,29.69-7.22,17.12-14.36,34.29-22,51.24-9,20-23.14,35.44-42.79,45.24-29.13,14.53-57-.89-60.86-33.29-.43-3.61-.78-7.22-1.16-10.83l-.62-.2c2.11-10.88,4.08-21.78,6.42-32.61A19.61,19.61,0,0,1,696,492.5c23.89-31.55,47.92-63,71.77-94.57,2.44-3.23,4.37-3.81,7.86-1.64,12.7,7.9,25.75,15.24,38.28,23.41C825.94,427.53,829.49,436.77,825.27,450.63Z"/><path class="cls-2" d="M529,809.87a28.73,28.73,0,0,1-5.7-.88c-19.75-3.9-33-15-36.89-35.16-1.82-9.39-2.19-19.07-3.1-28.63-1.24-13.18-1.33-26.56-3.76-39.51-5.4-28.71-24.73-44-52.57-43.24-3.76.1-6.89.53-7.13,5.29s2.52,6.35,6.65,6.85c15.69,1.91,23.15,7.51,25.6,22.95,2.1,13.19,1.64,26.78,2.23,40.2.71,16-.55,32.29,2.34,47.85,6.66,35.81,42.09,62.3,78.2,59.48,0-9.67-.2-19.05.09-28.41C535.08,812.13,533.76,809.82,529,809.87Z"/><path class="cls-2" d="M700.9,662.71c-12.45-.89-24.34,1.23-34.68,8.79C650.51,683,645.66,700,643.91,718c-1.49,15.31-1.36,30.76-2.75,46.08-2.24,24.77-14.36,39.18-36.55,44.5-4.29,1-8.69,1.56-13.22,2.36v34.92c4.9-.63,9.13-1,13.28-1.74,21.51-4.06,40.41-12.66,53.1-31.52,13.06-19.41,15.29-41.3,14.37-63.93-.52-12.61-1.16-25.27-.62-37.85a72.18,72.18,0,0,1,4.6-21.13c3.45-9.52,11.15-14.21,21.2-15.07,1.69-.14,4,.08,4.9-.9,1.69-1.76,3.55-4.35,3.46-6.51C705.61,665.58,702.7,662.83,700.9,662.71Z"/></g><text id="Letras" class="cls-3" transform="matrix(-0.76, -0.65, 0.65, -0.76, 281.16, 905.84)">M</text><text class="cls-3" transform="matrix(-0.66, -0.75, 0.75, -0.66, 227.91, 860.57)">O</text><text class="cls-3" transform="matrix(-0.56, -0.83, 0.83, -0.56, 188.4, 815.62)">V</text><text class="cls-3" transform="matrix(-0.5, -0.87, 0.87, -0.5, 159.93, 773)">I</text><text class="cls-3" transform="matrix(-0.4, -0.91, 0.91, -0.4, 147.88, 754.51)">M</text><text class="cls-3" transform="matrix(-0.31, -0.95, 0.95, -0.31, 120.54, 689.73)">I</text><text class="cls-3" transform="matrix(-0.23, -0.97, 0.97, -0.23, 113.13, 668.65)">E</text><text class="cls-3" transform="matrix(-0.11, -0.99, 0.99, -0.11, 101.34, 621.3)">N</text><text class="cls-3" transform="matrix(0, -1, 1, 0, 94.93, 562.15)">T</text><text class="cls-3" transform="matrix(0.11, -0.99, 0.99, 0.11, 94.24, 520.24)">O</text><text class="cls-3" transform="matrix(0.2, -0.98, 0.98, 0.2, 102.22, 458.92)"> </text><text class="cls-3" transform="matrix(0.28, -0.96, 0.96, 0.28, 105.54, 439.96)">E</text><text class="cls-3" transform="matrix(0.38, -0.93, 0.93, 0.38, 119.15, 392.92)">S</text><text class="cls-3" transform="matrix(0.46, -0.89, 0.89, 0.46, 135.91, 351.52)">T</text><text class="cls-3" transform="matrix(0.56, -0.83, 0.83, 0.56, 154.76, 314.27)">U</text><text class="cls-3" transform="matrix(0.66, -0.75, 0.75, 0.66, 186.76, 266.2)">D</text><text class="cls-3" transform="matrix(0.73, -0.69, 0.69, 0.73, 227.52, 221.14)">I</text><text class="cls-3" transform="matrix(0.78, -0.62, 0.62, 0.78, 243.2, 205.36)">A</text><text class="cls-3" transform="matrix(0.86, -0.52, 0.52, 0.86, 284.83, 171.92)">N</text><text class="cls-3" transform="matrix(0.91, -0.42, 0.42, 0.91, 335.91, 141.42)">T</text><text class="cls-3" transform="matrix(0.94, -0.35, 0.35, 0.94, 375.21, 123.72)">I</text><text class="cls-3" transform="matrix(0.96, -0.28, 0.28, 0.96, 396.01, 115.47)">L</text><text class="cls-3" transform="matrix(0.98, -0.22, 0.22, 0.98, 438, 103.49)"> </text><text class="cls-3" transform="matrix(0.99, -0.14, 0.14, 0.99, 456.57, 98.65)">P</text><text class="cls-3" transform="matrix(1, -0.01, 0.01, 1, 508.69, 91.09)">O</text><text class="cls-3" transform="matrix(0.99, 0.12, -0.12, 0.99, 570.13, 90.72)">R</text><text class="cls-3" transform="matrix(0.98, 0.2, -0.2, 0.98, 623.15, 97.73)"> </text><text class="cls-3" transform="matrix(0.96, 0.27, -0.27, 0.96, 642.16, 101.12)">L</text><text class="cls-3" transform="matrix(0.93, 0.37, -0.37, 0.93, 684.15, 112.41)">A</text><text class="cls-3" transform="matrix(0.9, 0.44, -0.44, 0.9, 733.98, 132.91)"> </text><text class="cls-3" transform="matrix(0.86, 0.51, -0.51, 0.86, 751.51, 140.76)">P</text><text class="cls-3" transform="matrix(0.8, 0.6, -0.6, 0.8, 796.77, 167.97)">S</text><text class="cls-3" transform="matrix(0.75, 0.66, -0.66, 0.75, 832.92, 195.82)">I</text><text class="cls-3" transform="matrix(0.69, 0.72, -0.72, 0.69, 850.06, 210.02)">C</text><text class="cls-3" transform="matrix(0.6, 0.8, -0.8, 0.6, 886.06, 246.99)">O</text><text class="cls-3" transform="matrix(0.5, 0.87, -0.87, 0.5, 922.35, 296.68)">L</text><text class="cls-3" transform="matrix(0.4, 0.92, -0.92, 0.4, 943.93, 332.96)">O</text><text class="cls-3" transform="matrix(0.27, 0.96, -0.96, 0.27, 968.17, 389.43)">G</text><text class="cls-3" transform="matrix(0.19, 0.98, -0.98, 0.19, 983.06, 444.24)">Í</text><text class="cls-3" transform="matrix(0.11, 0.99, -0.99, 0.11, 987.97, 465.94)">A</text><text class="cls-3" transform="matrix(0.02, 1, -1, 0.02, 992.96, 519.57)"> </text><text class="cls-3" transform="matrix(-0.06, 1, -1, -0.06, 994.14, 538.73)">C</text><text class="cls-3" transform="matrix(-0.14, 0.99, -0.99, -0.14, 990.46, 591.76)">I</text><text class="cls-3" transform="matrix(-0.22, 0.98, -0.98, -0.22, 987.88, 613.88)">E</text><text class="cls-3" transform="matrix(-0.34, 0.94, -0.94, -0.34, 977.53, 661.6)">N</text><text class="cls-3" transform="matrix(-0.44, 0.9, -0.9, -0.44, 957.2, 717.53)">T</text><text class="cls-3" transform="matrix(-0.5, 0.86, -0.86, -0.5, 937.95, 756.11)">Í</text><text class="cls-3" transform="matrix(-0.57, 0.82, -0.82, -0.57, 927.15, 775.64)">F</text><text class="cls-3" transform="matrix(-0.63, 0.78, -0.78, -0.63, 900.32, 813.8)">I</text><text class="cls-3" transform="matrix(-0.69, 0.72, -0.72, -0.69, 886.87, 831.52)">C</text><text class="cls-3" transform="matrix(-0.77, 0.64, -0.64, -0.77, 851.34, 868.85)">A</text></svg>