<svg id="Capa_1" data-name="Capa 1" xmlns="http://www.w3.org/2000/svg" viewBox="0 0 406 306"><defs><style>.cls-1{fill:#fff;}.cls-2{fill:#231f20;}.cls-3{fill:#004aad;}.cls-4{fill:#d1d3d4;}.cls-5{fill:none;}</style></defs><title>contacto</title><g id="_004" data-name=" 004"><polyline class="cls-1" points="289.14 284.53 290.28 251 265.14 247.19 263.61 284.91"/><path class="cls-2" d="M263.61,285.43h0a.5.5,0,0,1-.49-.52l1.53-37.73a.5.5,0,0,1,.58-.48l25.15,3.81a.51.51,0,0,1,.43.52l-1.14,33.49a.51.51,0,0,1-.53.49h0a.5.5,0,0,1-.48-.53h0l1.1-33-24.14-3.65L264.11,285A.5.5,0,0,1,263.61,285.43Z"/><polyline class="cls-1" points="166.45 270.05 195.22 235.95 220.94 242.24 188.16 275.76"/><path class="cls-2" d="M188.16,276.28a.47.47,0,0,1-.35-.15.49.49,0,0,1,0-.7h0L220,242.52l-24.55-6-28.56,33.87a.51.51,0,1,1-.79-.66l28.83-34.1a.49.49,0,0,1,.51-.16l25.72,6.28a.52.52,0,0,1,.24.85l-32.77,33.5A.57.57,0,0,1,188.16,276.28Z"/><path class="cls-3" d="M277.93,98.36s-39.1,10.72-38.72,12.24,8,29.72,8,29.72l24.36-6.09Z"/><path class="cls-3" d="M278.72,98.13s-12.41,3.33-20,7.71S253.17,157,253.17,157l56.4,11.37s10.74-30.35,10-44.21S310.29,90.62,278.72,98.13Z"/><path class="cls-2" d="M250.63,134.18a.31.31,0,0,1-.19,0,.52.52,0,0,1-.28-.68c3.68-9.06,9.23-22.89,9.39-23.85a.5.5,0,0,1,.51-.5h0a.54.54,0,0,1,.52.54c0,.87-6.62,17.25-9.47,24.21A.51.51,0,0,1,250.63,134.18Z"/><path class="cls-1" d="M282.17,92.43l-4,12s-.1,7.11,7.79,6.49A15.78,15.78,0,0,0,297.63,104L301,82.58a6.34,6.34,0,0,1-2.15-4.11,10.25,10.25,0,0,1,.1-3.58,17.44,17.44,0,0,1,1.75-4.53,16.73,16.73,0,0,1-9.75-5.23,27.71,27.71,0,0,1-1.71-2.32c-.24-.38-5.24,2-5.77,2.23a14.77,14.77,0,0,0-6.34,5.34,18.71,18.71,0,0,0-1.92,6.49,51.68,51.68,0,0,0-.9,9.44C274.33,92.35,282.17,92.43,282.17,92.43Z"/><path class="cls-2" d="M285,111.38a7.12,7.12,0,0,1-5.07-1.77,7.62,7.62,0,0,1-2.18-5.22v-.14l3.79-11.38c-1.93-.18-7.66-1.17-7.71-6.53a50.64,50.64,0,0,1,.9-9.51,19.06,19.06,0,0,1,2-6.67,15,15,0,0,1,6.43-5.54c5.84-2.88,6.23-2.29,6.37-2a20.85,20.85,0,0,0,1.66,2.28,16.12,16.12,0,0,0,9.5,5.07.47.47,0,0,1,.37.54.69.69,0,0,1-.05.13A17.05,17.05,0,0,0,299.31,75a10.39,10.39,0,0,0-.09,3.43,5.89,5.89,0,0,0,2,3.8.44.44,0,0,1,.18.44L298,104.13a.35.35,0,0,1-.06.17,16.06,16.06,0,0,1-12,7.11C285.65,111.38,285.32,111.38,285,111.38Zm-6.35-6.91a6,6,0,0,0,7.28,6,15.42,15.42,0,0,0,11.24-6.56l3.28-21.09a7,7,0,0,1-2.11-4.23,10.7,10.7,0,0,1,.08-3.7,17,17,0,0,1,1.52-4.06,17,17,0,0,1-9.42-5.23c-.52-.6-1.31-1.76-1.61-2.2a44,44,0,0,0-5.31,2.21,14.51,14.51,0,0,0-6.09,5.15,18.71,18.71,0,0,0-1.91,6.37,51.41,51.41,0,0,0-.89,9.35c.06,5.5,7.1,5.64,7.43,5.65a.42.42,0,0,1,.36.19.49.49,0,0,1,.08.42Z"/><path class="cls-1" d="M296.76,80.66a4.45,4.45,0,0,1,1.83-2,7.66,7.66,0,0,1,2.51-.79,3.14,3.14,0,0,1,1.43,0,2.27,2.27,0,0,1,.88.5,3.36,3.36,0,0,1,1.33,1.91,4,4,0,0,1-.21,1.91,7.87,7.87,0,0,1-.83,1.93,5.31,5.31,0,0,1-7.31,1.67l-.06,0"/><path class="cls-2" d="M299.22,86.89a5.73,5.73,0,0,1-3.11-.91.4.4,0,0,1,.42-.69h0a4.84,4.84,0,0,0,6.77-1.5A7.31,7.31,0,0,0,304.1,82a3.83,3.83,0,0,0,.21-1.71,3.05,3.05,0,0,0-1.18-1.68,2.44,2.44,0,0,0-.75-.43,2.93,2.93,0,0,0-1.25,0,7.54,7.54,0,0,0-2.37.75,4,4,0,0,0-1.67,1.88.39.39,0,0,1-.51.22h0a.38.38,0,0,1-.22-.5v0a4.77,4.77,0,0,1,2-2.27,8.34,8.34,0,0,1,2.63-.84,3.69,3.69,0,0,1,1.62,0,3.63,3.63,0,0,1,1,.56,3.82,3.82,0,0,1,1.47,2.17,4.35,4.35,0,0,1-.22,2.09,8.16,8.16,0,0,1-.88,2,5.68,5.68,0,0,1-3.6,2.54A4.81,4.81,0,0,1,299.22,86.89Z"/><path class="cls-2" d="M280.14,98.75a12.66,12.66,0,0,0,8.23-2c3.86-2.69,4.06-6.09,4.06-6.09a22.31,22.31,0,0,1-10.26,1.8Z"/><path class="cls-2" d="M281.3,99.26a8.52,8.52,0,0,1-1.24-.08.43.43,0,0,1-.38-.5s0-.05,0-.07l2-6.31a.48.48,0,0,1,.45-.31,22.24,22.24,0,0,0,10-1.85.49.49,0,0,1,.44,0,.46.46,0,0,1,.21.4c0,.15-.25,3.69-4.23,6.48A12.91,12.91,0,0,1,281.3,99.26Zm-.58-.92a12.2,12.2,0,0,0,7.37-2,8.91,8.91,0,0,0,3.71-5,23.78,23.78,0,0,1-9.33,1.61Z"/><path class="cls-1" d="M287.46,71.92s-5.08,5.08-4.37,6.34,3.51,1,3.51,1"/><path class="cls-2" d="M286.23,79.76c-.87,0-2.82-.13-3.51-1.27-.83-1.36,2.82-5.27,4.43-6.88a.46.46,0,0,1,.64,0h0a.45.45,0,0,1,0,.64c-2.58,2.59-4.61,5.24-4.31,5.77.48.8,2.44.86,3,.83a.47.47,0,0,1,.48.43.45.45,0,0,1-.42.47h-.35Z"/><path class="cls-2" d="M279.67,82.24l9.88-.13s-.45,6.7-6.19,7.11S279.67,82.24,279.67,82.24Z"/><path class="cls-1" d="M289.79,71.93a1.77,1.77,0,0,1,1.43-1c1.14-.19,1.72,1.14,1.72,1.14"/><path class="cls-2" d="M292.94,72.47a.47.47,0,0,1-.42-.26s-.44-1-1.23-.89a1.34,1.34,0,0,0-1.07.75.46.46,0,0,1-.58.28.44.44,0,0,1-.27-.56,2.18,2.18,0,0,1,1.77-1.35c1.46-.24,2.17,1.34,2.21,1.41a.46.46,0,0,1-.24.59h0Z"/><path class="cls-1" d="M280.65,71.07a1.76,1.76,0,0,1,1.43-1c1.14-.19,1.71,1.15,1.71,1.15"/><path class="cls-2" d="M283.79,71.62a.44.44,0,0,1-.41-.28s-.45-1-1.23-.87a1.32,1.32,0,0,0-1.08.75.45.45,0,0,1-.57.28.47.47,0,0,1-.28-.57A2.18,2.18,0,0,1,282,69.58c1.46-.25,2.17,1.35,2.2,1.41a.44.44,0,0,1-.21.58h0A.58.58,0,0,1,283.79,71.62Z"/><polygon class="cls-2" points="308.45 167.61 300.37 275.41 166.06 247.95 255.34 156.36 308.45 167.61"/><polygon class="cls-2" points="250.63 88.53 92.9 114.82 162.29 44.29 250.63 88.53"/><path class="cls-2" d="M92.9,115.32a.5.5,0,0,1-.51-.5.49.49,0,0,1,.15-.36l69.38-70.53a.5.5,0,0,1,.59-.09l88.31,44.24a.48.48,0,0,1,.27.53.5.5,0,0,1-.39.44L93,115.31Zm69.5-70.41-68,69.14L249,88.28Z"/><polygon class="cls-2" points="265.2 194.34 116.41 221.11 93.11 115.75 250.76 89.46 265.2 194.34"/><path class="cls-2" d="M116.42,221.61a.5.5,0,0,1-.5-.39L92.58,115.85a.51.51,0,0,1,.07-.38.47.47,0,0,1,.34-.23L250.7,89a.58.58,0,0,1,.39.09.51.51,0,0,1,.2.35l14.45,104.88a.51.51,0,0,1-.42.57h0L116.5,221.6ZM93.71,116.16l23.1,104.37,147.82-26.61L250.33,90.07Z"/><path class="cls-3" d="M128.9,186.24S101.5,101.65,88.3,75.93l146.91-40,9.13,130.93Z"/><path class="cls-1" d="M114,90.73a.49.49,0,0,1-.49-.39.52.52,0,0,1,.35-.62l108-28a.52.52,0,0,1,.63.38.53.53,0,0,1-.38.64l-108,28Z"/><path class="cls-1" d="M118.6,108.44a.47.47,0,0,1-.48-.39.49.49,0,0,1,.37-.6h0L223.1,84a.52.52,0,0,1,.21,1L118.75,108.43Z"/><path class="cls-1" d="M127.57,125a.5.5,0,0,1-.5-.41.51.51,0,0,1,.39-.6h0l100-19.43a.51.51,0,0,1,.59.39h0a.51.51,0,0,1-.37.6h0L127.66,125Z"/><path class="cls-1" d="M132.33,146.17a.51.51,0,0,1-.09-1l94.89-15.43a.51.51,0,0,1,.59.42.52.52,0,0,1-.43.59l-94.88,15.43Z"/><polygon class="cls-1" points="182.34 156.5 93.11 115.75 116.41 221.11 265.2 194.34 250.76 89.46 182.34 156.5"/><path class="cls-2" d="M116.42,221.61a.5.5,0,0,1-.5-.39L92.58,115.85a.51.51,0,0,1,.71-.57l88.92,40.6L250.4,89.05a.53.53,0,0,1,.72,0,.49.49,0,0,1,.14.3l14.45,104.88a.51.51,0,0,1-.42.57h0L116.5,221.6Zm-22.6-105,23,103.9,147.82-26.61L250.42,90.53,182.7,156.87a.52.52,0,0,1-.57.09Z"/><polygon class="cls-1" points="265.21 194.34 116.42 221.11 182.35 156.5 265.21 194.34"/><path class="cls-2" d="M116.42,221.61a.5.5,0,0,1-.46-.27.49.49,0,0,1,.11-.59l66-64.61a.5.5,0,0,1,.57-.1l82.84,37.83a.54.54,0,0,1,.3.53.51.51,0,0,1-.41.44L116.51,221.61Zm66-64.5L118,220.31l145.56-26.18Z"/><polygon class="cls-1" points="265.21 194.34 116.42 221.11 182.35 156.5 265.21 194.34"/><path class="cls-2" d="M116.42,221.61a.5.5,0,0,1-.46-.27.49.49,0,0,1,.11-.59l66-64.61a.5.5,0,0,1,.57-.1l82.84,37.83a.54.54,0,0,1,.3.53.51.51,0,0,1-.41.44L116.51,221.61Zm66-64.5L118,220.31l145.56-26.18Z"/><path class="cls-4" d="M254.86,49.17s-2.17,8.12-9,8.32c0,0,7.21,2,8.72,8.79A12.53,12.53,0,0,1,263,58.45,14.1,14.1,0,0,1,254.86,49.17Z"/><path class="cls-4" d="M58.7,110.87s5.45,7.79.62,13.82c0,0,7-4.75,13.93-1.13a14.15,14.15,0,0,1-.66-12.91S66.66,114.25,58.7,110.87Z"/><path class="cls-4" d="M107.59,47.31s1.15,13.58-9.14,17.57c0,0,12.07-.85,18.07,8.63,0,0-.42-10.4,8.47-16.46C124.91,57.05,115,57.23,107.59,47.31Z"/><path class="cls-1" d="M302.94,115.66s-78.88,40-90.89,42.29-26.28-1.71-25.72,1.72,7.43,5.13,7.43,5.13-21.71,3.44-20.57,5.73,15.44-.58,15.44-.58-17.72,5.15-13.73,7.43,16.58-2.85,16.58-2.85-18.86,9.71-13.71,10.28,14.29-4.57,14.29-4.57-14.29,7.43-8.58,8,90.87-29.72,119.46-46.86"/><path class="cls-2" d="M183.65,188.76h-.22c-1.06-.11-1.67-.48-1.79-1.09-.17-.91,1.1-2.19,2.87-3.49a17.18,17.18,0,0,1-6.8,1.15c-.79-.09-1.23-.39-1.32-.91-.29-1.52,4.71-4.74,9.34-7.36-3.92,1.14-8.76,2.1-11.08.78a1.36,1.36,0,0,1-.83-1.36c.19-1.61,4.31-3.48,8.28-4.93-4.16.52-8.62.69-9.37-.79a1,1,0,0,1,0-.84c1-2,13.35-4.33,18.86-5.26-2.18-.82-5.36-2.43-5.77-4.9a1.34,1.34,0,0,1,.32-1.18c1-1.12,4.12-.94,8.85-.67,5,.29,11.17.64,16.95-.44,11.8-2.26,90-41.86,90.74-42.26a.52.52,0,0,1,.69.22.5.5,0,0,1-.22.68c-3.23,1.64-79.08,40.08-91,42.35-5.87,1.12-12.18.75-17.26.47-3.79-.23-7.36-.43-8,.32a.35.35,0,0,0-.07.34c.43,2.54,5.23,4.28,7,4.74a.51.51,0,1,1,0,1c-9.34,1.47-19.73,3.83-20.19,5.08.59,1.11,8.19.41,14.88-.93a.52.52,0,0,1,.24,1c-6.59,1.91-13.79,4.8-13.95,6.15,0,.13.21.27.34.35,3.1,1.78,12.7-1.48,16.13-2.89a.52.52,0,0,1,.66.27.52.52,0,0,1-.24.66c-6.83,3.52-14.21,8-14.33,9.24a3.12,3.12,0,0,0,.44.09c3.83.43,10.15-2.54,12.8-3.88l1.19-.64a.51.51,0,0,1,.5.89h0c-.08,0-.55.31-1.28.69-4.74,2.58-8.53,5.32-8.38,6.09,0,0,.18.19.89.26h.25c3,0,23.87-6.61,50.75-16.76,14.7-5.55,50.75-19.56,68.22-30a.52.52,0,0,1,.71.11.5.5,0,0,1-.11.71l-.07.05C275.64,158.34,191.68,188.76,183.65,188.76Z"/><path class="cls-3" d="M288.36,149.47s-12.18-28.57-11.05-29,24.36-15.62,26.3-14.47,9.13,23.24,6.85,29.72S288.36,149.47,288.36,149.47Z"/><path class="cls-2" d="M291.41,149.61a.52.52,0,0,1-.5-.36.53.53,0,0,1,.33-.66c.18-.06,17.09-5.76,23.77-14.31a.51.51,0,0,1,.72-.08h0a.51.51,0,0,1,.1.71v0c-6.87,8.79-23.55,14.43-24.25,14.66A.52.52,0,0,1,291.41,149.61Z"/><path class="cls-2" d="M304.92,87.52a.52.52,0,0,1-.14-1,13.21,13.21,0,0,0,8.46-7.69,20.62,20.62,0,0,0,1-11.78,19.91,19.91,0,0,0-4.77-10.27,12.48,12.48,0,0,0-10.15-4.06l-.74.1a11.65,11.65,0,0,1-1.67.15,10.57,10.57,0,0,1-2-.29l-.44-.09A21.65,21.65,0,0,0,269.18,79c.24,1,.83,2.63,2.08,2.78a.51.51,0,0,1,.46.55v0a.52.52,0,0,1-.58.45h0c-1.39-.17-2.45-1.43-3-3.56A22.71,22.71,0,0,1,294.67,51.5l.46.09a9.09,9.09,0,0,0,1.87.28,12.7,12.7,0,0,0,1.5-.15c.27,0,.52-.08.78-.1a13.33,13.33,0,0,1,11,4.4,21,21,0,0,1,5.07,10.81,21.66,21.66,0,0,1-1.11,12.38,14.18,14.18,0,0,1-9.13,8.28Z"/><path class="cls-2" d="M297,52.41s5.28-3.91,13.85-1.82,11.82,17.72,3.81,26.1C314.65,76.69,315.9,53.84,297,52.41Z"/><path class="cls-2" d="M327.51,101.42h-.05a20.3,20.3,0,0,1-11.17-4.21,13.35,13.35,0,0,1-5.07-10.69.51.51,0,0,1,.52-.5h0a.52.52,0,0,1,.5.54h0a12.3,12.3,0,0,0,4.67,9.82,18.44,18.44,0,0,0,8.54,3.72,6.33,6.33,0,0,1-1.56-3.43,12.12,12.12,0,0,1,.86-5.65,53.77,53.77,0,0,1,4.46-8.71c2.52-4.32,4.91-8.39,5.44-13.12A16.86,16.86,0,0,0,313.5,51.06a.54.54,0,0,1-.65-.36.53.53,0,0,1,.36-.64h0a17.9,17.9,0,0,1,22.49,19.28c-.56,5-3.11,9.3-5.58,13.52a55.4,55.4,0,0,0-4.32,8.52,10.8,10.8,0,0,0-.81,5.15,4.8,4.8,0,0,0,2.71,3.87.53.53,0,0,1-.19,1Z"/><path class="cls-2" d="M280.93,124.75a.52.52,0,0,1-.27-1l20.86-12.86a.53.53,0,0,1,.72.17.51.51,0,0,1-.17.71h0l-20.85,12.86A.5.5,0,0,1,280.93,124.75Z"/><line class="cls-5" x1="85.47" y1="160.5" x2="54.04" y2="162.22"/><path class="cls-4" d="M54,162.68a.47.47,0,1,1,0-.93L85.5,160a.46.46,0,0,1,.5.4v0a.47.47,0,0,1-.44.49L54.1,162.68Z"/><line class="cls-5" x1="144.91" y1="234.81" x2="129.48" y2="258.81"/><path class="cls-4" d="M129.48,259.28a.45.45,0,0,1-.25-.07.47.47,0,0,1-.14-.65l15.44-24a.46.46,0,0,1,.81.45l0,.05-15.39,24A.47.47,0,0,1,129.48,259.28Z"/><line class="cls-5" x1="94.62" y1="206.81" x2="71.18" y2="219.95"/><path class="cls-4" d="M71.18,220.42a.48.48,0,0,1-.4-.25.45.45,0,0,1,.17-.62h0l23.43-13.15a.48.48,0,0,1,.64.18.46.46,0,0,1-.17.64h0l-23.43,13.2A.7.7,0,0,1,71.18,220.42Z"/><line class="cls-5" x1="244.94" y1="37.61" x2="250.65" y2="22.19"/><path class="cls-4" d="M244.94,38.08a.47.47,0,0,1-.47-.47.45.45,0,0,1,0-.16l5.72-15.39a.47.47,0,0,1,.62-.23.47.47,0,0,1,.25.56l-5.71,15.43A.45.45,0,0,1,244.94,38.08Z"/><line class="cls-5" x1="331.25" y1="130.78" x2="355.82" y2="126.78"/><path class="cls-4" d="M331.25,131.25a.45.45,0,0,1-.46-.39.46.46,0,0,1,.38-.53h0l24.58-4.06a.49.49,0,0,1,.54.39.47.47,0,0,1-.39.54h0l-24.58,4Z"/><line class="cls-5" x1="315.24" y1="213.09" x2="330.68" y2="232.53"/><path class="cls-4" d="M330.68,233a.45.45,0,0,1-.37-.18l-15.44-19.43a.48.48,0,0,1,.08-.66.46.46,0,0,1,.65.07h0L331,232.23a.47.47,0,0,1-.07.66h0A.48.48,0,0,1,330.68,233Z"/><line class="cls-5" x1="90.42" y1="67.51" x2="79.38" y2="58.03"/><path class="cls-4" d="M90.42,68a.44.44,0,0,1-.31-.11l-11-9.48a.47.47,0,0,1,0-.66.46.46,0,0,1,.64-.06h0l11,9.48a.45.45,0,0,1,.07.64l0,0A.44.44,0,0,1,90.42,68Z"/><path class="cls-1" d="M284.67,185.58a.54.54,0,0,1-.25-.06.49.49,0,0,1-.2-.67h0l11-20.2a.5.5,0,0,1,.57-.24.49.49,0,0,1,.38.49v17.9a.51.51,0,1,1-1,0V166.86l-10.15,18.47A.51.51,0,0,1,284.67,185.58Z"/></g></svg>