<?xml version="1.0" encoding="utf-8"?>
<!-- Generator: Adobe Illustrator 24.0.2, SVG Export Plug-In . SVG Version: 6.00 Build 0)  -->
<svg version="1.1" id="Portada" xmlns="http://www.w3.org/2000/svg" xmlns:xlink="http://www.w3.org/1999/xlink" x="0px" y="0px"
	 viewBox="0 0 2316.9 893.7" style="enable-background:new 0 0 2316.9 893.7;" xml:space="preserve">
<style type="text/css">
	.st0{fill:#004AAD;}
	.st1{fill:#FFFFFF;}
	.st2{fill:none;}
	.st3{font-family:'Montserrat-ExtraBold';}
	.st4{font-size:417.7221px;}
	.st5{font-family:'Montserrat-Bold';}
	.st6{font-size:70px;}
	.st7{font-size:59px;}
</style>
<title>hero</title>
<rect id="Fondo" class="st0" width="2316.9" height="893.7"/>
<g>
	<g id="Puño">
		<path class="st1" d="M2147.7,233.3c-10.8-6.3-22.1-12-33.1-18l-3.9-2.1c1.7-8.3,4.8-15.7,4.2-22.9c-0.5-6.3-4.3-12.8-8.2-18.4
			c-12.3-17.5-25.6-34.4-45.4-46.3c-1.1-0.7-1.5-3.3-1.2-4.8c2.9-13.9-0.9-25.9-12.1-36c-9.8-8.9-22-14.4-34.6-19.4
			c-20.2-8.1-39-7.8-55.5,8.3c-2.8-3.7-5-6.9-7.5-9.9c-14.1-17.4-31-31.4-56-34.6c-16.6-2.1-30.8,0-42.3,13.8
			c-24.9,30-51.5,58.9-77.2,88.4c-2.8,3.2-5.1,3.9-9.2,2.4c-5.3-1.9-10.6-3.6-16.1-4.9c-11-2.7-26.9,4.3-31.7,13.8
			c-1,2-2,4.1-3.1,6.1c-28.1,50-56.2,99.9-84.3,149.8c-2.1,3.7-1.9,6.3,0.6,9.8c41.7,58.3,83.2,116.7,124.7,175.2
			c4.6,6.2,7,13.7,7,21.4c-0.1,44.7-0.1,89.5,0,134.2c0,9.1,1.2,10.2,11.2,10.2h272.7c9.8,0,11.4-1.4,11.4-10.2
			c0-45.3,0-90.5,0.1-135.7c0.1-3.6,1-7.1,2.7-10.3c10.4-20.3,21.3-40.4,31.8-60.7c11.9-22.9,23.9-45.8,28.8-71
			c0.9-4.4,1.2-9,3.1-13c8.2-16.9,17-33.5,25.3-50.3c4.7-9.6,9.8-19.1,13-29.1C2167.9,254,2162.3,241.9,2147.7,233.3z M2054.3,134.5
			c4.1,2.9,8,5.3,11.4,8.2c13.3,11.6,24.1,25,33.6,39.2c5.7,8.5,4.7,16.5-0.8,24.2c-4.5,6.4-9.6,12.4-14.7,18.5
			c-16.8,19.7-33.5,39.5-50.6,59c-3.2,3.6-7.8,6.5-12.3,9.1c-4.4,2.5-9.9,2.6-14.4,0.2c-7.7-3.9-15.5-7.7-22.6-12.4
			c-10.8-7.1-12.1-17.8-10-28.4c1.3-6.8,4-13.3,8-19.1c22.5-31.4,45.5-62.6,68.4-93.8C2051.4,137.9,2052.6,136.6,2054.3,134.5z
			 M1957.2,92.7c3.5-4.4,7.2-8.6,11.1-12.5c8.6-8.7,19.7-11.6,31.4-7.3c12.4,4.5,24.7,9.9,35.6,16.8c15.7,9.9,17.7,25.6,7.2,40.1
			c-25.1,34.4-50.3,68.8-75.9,103.9l-81.2-47.2c8-10.4,15.7-20.6,23.5-30.8C1925,134.7,1941,113.7,1957.2,92.7L1957.2,92.7z
			 M1814.3,104.4c16.6-19,33.7-37.7,49.8-57c7.4-8.8,17.3-8.3,27.1-7.5c15,1.3,27.5,8.1,37.5,17.8c6.2,6,11.8,12.6,16.7,19.7
			c1.8,2.6,1.9,7.9,0,10.3c-23,30.8-46.5,61.2-69.9,91.7c-0.4,0.4-0.9,0.7-1.4,1l-87.5-44.6C1796.1,125.2,1805.2,114.8,1814.3,104.4
			L1814.3,104.4z M1895.2,437.4c-3.6-0.1-6.9,0.3-7.2,4.2s2.8,5.3,6.7,5.6c0.8,0.1,1.5,0.2,2.8,0.3v190.9h-119.7
			c0.4-4.3,1.2-8.5,1.2-12.7c0.1-40.8,0-81.5,0.2-122.3c0-4.5-1.4-8.9-4.2-12.5c-43.4-61-86.8-122-130.2-183
			c-2.4-3.3-2.5-5.8-0.5-9.3c27.7-48.9,55.2-97.9,82.7-147c0.6-0.9,1.1-1.8,1.6-2.8c4.8-15.8,25.5-20.1,40.9-10.6
			c32.7,20.3,69,34.9,102.5,53.8c29.3,16.6,58.3,33.7,87.5,50.5c6.4,3.7,2.5,8.7,0.9,12.3c-8.3,18.7-28.4,28.2-50.9,25.1
			c-27.4-3.8-52.7-13-77.9-22.7c-15-5.8-29.7-12.4-44.6-18.5c-1.9-0.8-4.3-0.5-6.4-1c-1.7-0.4-3.8-0.7-5-1.7
			c-5.8-5.1-11.4-10.4-17.1-15.7c1.1,9.5,8.8,15.3,16.4,21.6c-1.8,2.8-3.3,5.7-5.3,8.4c-5.3,7.1-5.9,13.1,0.4,19.3
			c5.5,5.5,11.7,10.1,18.6,13.7c53.5,27.6,90,68.4,115.2,117.8c4.7,9.3,6.7,19.6,9.8,29.5c0.6,1.9,0.3,4,0.4,6.8
			C1907.2,437.4,1901.2,437.5,1895.2,437.4L1895.2,437.4z M2093.1,404.7c-14.4,28.9-29.6,57.4-44.3,86.2c-1.7,3.3-2.7,7-2.8,10.8
			c-0.2,43.3-0.1,86.7-0.1,130c0,2.2-0.3,4.4-0.4,6.8h-115.1V447.6c1.9-0.3,4.3-0.1,5.5-1c1.8-1.4,3.8-3.5,3.8-5.4
			c0-1.3-3.1-3.4-5-3.6c-4.5-0.5-9.2-0.2-14.1-0.2c0-6.3,0.2-12.1,0-17.9c-0.9-25.4-12.5-47.2-28.6-67.4
			c-23.6-29.6-53.3-53.3-89.1-70.9c-7.3-3.7-14.1-8.2-20.3-13.5c-5-4.2-6.8-9.9-3.4-16c2-3.6,4.2-4.3,8.7-2.5
			c27,10.7,53.9,21.5,81.3,31.2c12.1,4.3,25.1,6.6,37.9,8.9c21.3,3.8,38.7-2.8,52.7-17.1c0.6-0.6,1.1-1.4,2.2-2.8
			c8.4,19.7,33.1,35.4,55.2,36.4c-1.1,10.6-3,21.3-3.1,31.9c-0.1,22,13.8,39,35.4,44.6c18.1,4.7,33.8-0.5,48.6-9.4
			c3.1-1.9,6.1-4.1,9.1-6.2l1.6,0.7C2103.5,379.8,2099.2,392.6,2093.1,404.7L2093.1,404.7z M2150.9,267.2c-2.8,8.2-7,16-10.7,23.9
			c-6.5,13.8-13,27.5-19.9,41.2c-8.1,16-20.9,28.5-38.6,36.3c-26.3,11.7-51.5-0.7-55-26.7c-0.4-2.9-0.7-5.8-1-8.7l-0.6-0.2
			c1.9-8.7,3.7-17.5,5.8-26.2c0.6-2.2,1.8-4.2,3.3-5.9c21.6-25.4,43.3-50.6,64.8-76c2.2-2.6,3.9-3.1,7.1-1.3
			c11.5,6.4,23.3,12.3,34.6,18.8C2151.5,248.6,2154.7,256.1,2150.9,267.2L2150.9,267.2z"/>
		<path class="st1" d="M1883.4,555.8c-1.7-0.1-3.5-0.3-5.1-0.7c-17.8-3.1-29.8-12-33.3-28.3c-1.7-7.5-2-15.3-2.8-23
			c-1.1-10.6-1.2-21.3-3.4-31.7c-4.9-23.1-22.3-35.4-47.5-34.7c-3.4,0.1-6.2,0.4-6.4,4.3s2.3,5.1,6,5.5c14.2,1.5,20.9,6,23.1,18.4
			c1.9,10.6,1.5,21.5,2,32.3c0.6,12.8-0.5,25.9,2.1,38.4c6,28.8,38,50,70.6,47.8c0-7.8-0.2-15.3,0.1-22.8
			C1888.9,557.6,1887.7,555.8,1883.4,555.8z"/>
		<path class="st1" d="M2038.6,437.6c-11.2-0.7-22,1-31.3,7.1c-14.2,9.2-18.6,22.9-20.2,37.4c-1.3,12.3-1.2,24.7-2.5,37
			c-2,19.9-13,31.5-33,35.7c-3.9,0.8-7.8,1.3-11.9,1.9v28.1c4.4-0.5,8.3-0.8,12-1.4c19.4-3.3,36.5-10.2,48-25.3
			c11.8-15.6,13.8-33.2,13-51.4c-0.5-10.1-1-20.3-0.6-30.4c0.4-5.9,1.8-11.6,4.2-17c3.1-7.6,10.1-11.4,19.2-12.1
			c1.5-0.1,3.6,0.1,4.4-0.7c1.5-1.4,3.2-3.5,3.1-5.2C2042.9,439.9,2040.3,437.7,2038.6,437.6z"/>
	</g>
	<rect x="152.1" y="286.8" class="st2" width="1450.8" height="362.6"/>
	<text transform="matrix(1.12 0 0 1 152.0738 641.9004)" class="st1 st3 st4">MEPC</text>
</g>
<text transform="matrix(1.12 0 0 1 98.4537 798.9291)"><tspan x="0" y="0" class="st1 st5 st6">M</tspan><tspan x="66.8" y="0" class="st1 st5 st7">OVIMIENTO ESTUDIANTIL POR LA PSICOLOGÍA CIENTÍFICA </tspan></text>
</svg>
