<svg id="Layer_1" data-name="Layer 1" xmlns="http://www.w3.org/2000/svg" viewBox="0 0 2184 876.57"><title>hero</title><rect width="2184" height="876.57" style="fill:#004aad"/><text transform="translate(19.57 834.24)" style="font-size:70.0199966430664px;fill:#fff;font-family:Montserrat-Regular, Montserrat">M<tspan x="66.87" y="0" style="letter-spacing:-0.02099728129817667em">O</tspan><tspan x="124.14" y="0" style="letter-spacing:-0.01500005050560545em">V</tspan><tspan x="171.97" y="0">IMIEN</tspan><tspan x="384.89" y="0" style="letter-spacing:-0.009993060146226225em">T</tspan><tspan x="424.39" y="0">O E</tspan><tspan x="548.32" y="0" style="letter-spacing:-0.009993060146226225em">S</tspan><tspan x="590.68" y="0" style="letter-spacing:-0.013995863024058645em">T</tspan><tspan x="629.89" y="0">UDIANTIL POR </tspan><tspan x="1170.37" y="0" style="letter-spacing:0.0019944279147388em">L</tspan><tspan x="1211.75" y="0">A PSI</tspan><tspan x="1394.77" y="0" style="letter-spacing:-0.014993076981428042em">C</tspan><tspan x="1444.07" y="0">O</tspan><tspan x="1502.81" y="0" style="letter-spacing:-0.014002836548236053em">L</tspan><tspan x="1543.08" y="0">OGÍA CIENTÍFI</tspan><tspan x="2047.7" y="0" style="letter-spacing:-0.017977745329358835em">C</tspan><tspan x="2096.78" y="0">A</tspan></text><g id="Puño"><path d="M2110.81,216.2c-10.81-6.31-22-12-33.1-18l-3.86-2.08c1.69-8.27,4.79-15.69,4.19-22.86-.52-6.29-4.3-12.8-8.2-18.35-12.31-17.53-25.6-34.44-45.39-46.29-1.12-.67-1.49-3.25-1.17-4.77,2.94-13.88-.94-25.91-12.08-36-9.8-8.86-22-14.41-34.58-19.44-20.18-8.1-39-7.8-55.54,8.25-2.76-3.67-5-6.87-7.48-9.93-14.07-17.37-31-31.35-55.95-34.58-16.57-2.16-30.85,0-42.27,13.76-24.92,30-51.53,58.9-77.24,88.39-2.76,3.16-5.13,3.88-9.15,2.45-5.25-1.86-10.61-3.55-16-4.89-11-2.72-26.94,4.34-31.68,13.82-1,2-2,4.1-3.09,6.1q-42.09,74.91-84.28,149.79c-2.08,3.68-1.92,6.33.57,9.82q62.46,87.51,124.65,175.17a35.58,35.58,0,0,1,7,21.39c-.12,44.73-.06,89.46,0,134.19,0,9.06,1.18,10.14,11.2,10.14h272.66c9.81,0,11.37-1.4,11.37-10.18,0-45.25,0-90.5.12-135.74a23.48,23.48,0,0,1,2.66-10.32c10.45-20.3,21.29-40.44,31.82-60.71,11.9-22.92,23.9-45.83,28.79-71,.85-4.38,1.19-9,3.13-13,8.18-16.86,17-33.45,25.34-50.26,4.72-9.57,9.77-19.14,13-29.14C2131,236.87,2125.42,224.71,2110.81,216.2Zm-93.41-98.83c4.06,2.9,8,5.29,11.4,8.24,13.28,11.65,24.07,25,33.65,39.2,5.69,8.46,4.67,16.47-.77,24.24-4.48,6.4-9.61,12.44-14.73,18.46-16.76,19.74-33.51,39.49-50.62,59-3.21,3.66-7.81,6.53-12.26,9.08a14.91,14.91,0,0,1-14.37.22c-7.69-3.93-15.53-7.74-22.63-12.42-10.82-7.13-12.08-17.77-10-28.43a50.27,50.27,0,0,1,8-19.05c22.46-31.45,45.53-62.56,68.41-93.77C2014.5,120.72,2015.7,119.41,2017.4,117.37Zm-97.1-41.79a143.86,143.86,0,0,1,11.13-12.51c8.56-8.72,19.73-11.59,31.43-7.33,12.39,4.5,24.71,9.93,35.58,16.81,15.67,9.92,17.74,25.59,7.16,40.1-25.11,34.45-50.29,68.85-75.93,104l-81.19-47.21c8-10.46,15.69-20.65,23.47-30.81C1888,117.56,1904.09,96.52,1920.3,75.58ZM1777.4,87.29c16.65-19,33.65-37.72,49.8-57,7.4-8.84,17.28-8.34,27.1-7.48,15,1.31,27.47,8.09,37.54,17.81a128,128,0,0,1,16.66,19.73c1.77,2.59,1.89,7.89.06,10.34-23,30.76-46.5,61.22-69.89,91.74a8.18,8.18,0,0,1-1.42,1l-87.53-44.55C1759.16,108.09,1768.27,97.69,1777.4,87.29Zm80.93,332.92c-3.6-.07-6.88.29-7.21,4.19s2.76,5.28,6.65,5.57c.77.06,1.53.16,2.76.29V621.2H1740.82c.41-4.3,1.15-8.47,1.16-12.65.09-40.76,0-81.53.16-122.29a20.34,20.34,0,0,0-4.15-12.5q-65.12-91.47-130.16-183c-2.39-3.34-2.47-5.79-.51-9.26q41.51-73.44,82.73-147a15.27,15.27,0,0,0,1.56-2.76c4.76-15.82,25.54-20.14,40.88-10.64,32.7,20.26,69,34.87,102.5,53.8,29.35,16.59,58.34,33.68,87.5,50.54,6.45,3.73,2.48,8.66.86,12.27C1915,256.41,1895,266,1872.48,262.87c-27.38-3.75-52.74-13-77.88-22.71-15-5.82-29.69-12.42-44.59-18.53-1.9-.77-4.3-.53-6.41-1-1.73-.37-3.81-.69-5-1.71-5.81-5.1-11.37-10.42-17.1-15.73,1.06,9.49,8.75,15.31,16.43,21.62-1.76,2.8-3.32,5.7-5.3,8.36-5.26,7-5.87,13,.45,19.33a77.37,77.37,0,0,0,18.58,13.66c53.5,27.64,90,68.39,115.23,117.76,4.73,9.25,6.72,19.63,9.78,29.53.59,1.91.3,4.05.45,6.78C1870.26,420.24,1864.29,420.33,1858.33,420.21Zm197.88-32.65c-14.39,28.87-29.64,57.41-44.33,86.17a24.68,24.68,0,0,0-2.78,10.8c-.19,43.34-.12,86.68-.14,130,0,2.19-.26,4.38-.41,6.76h-115.1V430.44c1.91-.3,4.26-.07,5.49-1,1.79-1.36,3.75-3.55,3.75-5.39,0-1.26-3.06-3.39-5-3.62-4.51-.54-9.16-.17-14.1-.17,0-6.34.17-12.14,0-17.92C1882.69,377,1871,355.1,1855,334.9q-35.37-44.44-89.11-70.88a104,104,0,0,1-20.26-13.48c-5-4.17-6.83-9.89-3.41-16,2-3.59,4.2-4.3,8.68-2.52,27,10.66,53.87,21.47,81.26,31.18,12.07,4.27,25.12,6.59,37.93,8.89,21.27,3.83,38.69-2.78,52.72-17.12.63-.64,1.1-1.39,2.17-2.77,8.39,19.71,33,35.45,55.22,36.41-1.09,10.62-3.05,21.25-3.1,31.88-.09,22,13.78,39,35.43,44.62,18.08,4.7,33.82-.53,48.59-9.43,3.14-1.9,6.06-4.1,9.08-6.16l1.59.67C2066.62,362.64,2062.26,375.43,2056.21,387.56ZM2114,250.06c-2.79,8.17-7,16-10.72,23.86-6.53,13.75-13,27.54-19.86,41.16-8.11,16-20.89,28.47-38.63,36.34-26.31,11.67-51.47-.72-55-26.75-.38-2.89-.7-5.79-1-8.69l-.56-.16c1.9-8.74,3.68-17.5,5.79-26.2a15.24,15.24,0,0,1,3.28-5.92c21.56-25.34,43.26-50.6,64.8-76,2.2-2.59,4-3.06,7.09-1.32,11.47,6.35,23.26,12.25,34.57,18.81C2114.63,231.51,2117.83,238.93,2114,250.06Z" style="fill:#fff"/><path d="M1846.48,538.65a29.15,29.15,0,0,1-5.14-.71c-17.83-3.14-29.77-12-33.31-28.25-1.65-7.54-2-15.31-2.8-23-1.12-10.59-1.2-21.34-3.4-31.75-4.87-23.06-22.32-35.35-47.47-34.73-3.39.09-6.22.43-6.43,4.25s2.27,5.1,6,5.5c14.17,1.54,20.91,6,23.12,18.44,1.89,10.59,1.48,21.52,2,32.29.63,12.83-.5,25.94,2.11,38.44,6,28.77,38,50.05,70.61,47.78,0-7.77-.18-15.3.08-22.82C1852,540.46,1850.8,538.6,1846.48,538.65Z" style="fill:#fff"/><path d="M2001.72,420.43c-11.24-.71-22,1-31.31,7.06-14.19,9.23-18.56,22.86-20.15,37.36-1.34,12.29-1.23,24.71-2.48,37-2,19.89-13,31.47-33,35.74-3.87.83-7.84,1.26-11.93,1.89v28.06c4.42-.51,8.24-.78,12-1.4,19.42-3.26,36.49-10.17,47.94-25.32,11.8-15.6,13.81-33.18,13-51.36-.46-10.13-1-20.29-.56-30.4a53,53,0,0,1,4.15-17c3.12-7.64,10.07-11.41,19.15-12.1,1.52-.11,3.58.06,4.42-.72,1.53-1.42,3.21-3.5,3.13-5.23C2006,422.74,2003.34,420.53,2001.72,420.43Z" style="fill:#fff"/></g><text transform="translate(56.14 613.78) scale(1.12 1)" style="font-size:417.72210693359375px;fill:#fff;font-family:Montserrat-Bold, Montserrat;font-weight:700">MEPC</text></svg>