<svg id="Portada" xmlns="http://www.w3.org/2000/svg" viewBox="0 0 2316.86 893.71"><title>hero</title><rect id="Fondo" width="2316.86" height="893.71" style="fill:#004aad"/><text id="Movimiento" transform="translate(35.54 851.38)" style="font-size:70.0199966430664px;fill:#fff;font-family:Montserrat-ExtraBold, Montserrat;font-weight:800">M<tspan x="66.8" y="0" style="letter-spacing:-0.023988923170284872em">O</tspan><tspan x="124.36" y="0" style="letter-spacing:-0.01500005050560545em">V</tspan><tspan x="176.94" y="0">IMIEN</tspan><tspan x="394.7" y="0" style="letter-spacing:-0.009993060146226225em">T</tspan><tspan x="438.46" y="0">O E</tspan><tspan x="565.13" y="0" style="letter-spacing:-0.009993060146226225em">S</tspan><tspan x="609.73" y="0" style="letter-spacing:-0.010983300579418218em">T</tspan><tspan x="653.42" y="0">UDIANTIL POR </tspan><tspan x="1215.82" y="0" style="letter-spacing:0.007991658707310018em">L</tspan><tspan x="1259.09" y="0">A PSI</tspan><tspan x="1455.14" y="0" style="letter-spacing:-0.014993076981428042em">C</tspan><tspan x="1505.77" y="0">O</tspan><tspan x="1565" y="0" style="letter-spacing:-0.010990274103595628em">L</tspan><tspan x="1606.94" y="0">OGÍA CIENTÍFI</tspan><tspan x="2135.03" y="0" style="letter-spacing:-0.011994461585142436em">C</tspan><tspan x="2185.86" y="0">A</tspan></text><g id="Puño"><path d="M2147.73,233.34c-10.81-6.31-22.05-12-33.11-18l-3.85-2.09c1.69-8.27,4.79-15.68,4.19-22.85-.52-6.29-4.3-12.81-8.2-18.36-12.31-17.53-25.6-34.44-45.39-46.29-1.12-.67-1.49-3.25-1.17-4.77,2.94-13.88-.95-25.91-12.08-36-9.81-8.87-22-14.42-34.58-19.45-20.18-8.1-39-7.8-55.54,8.26-2.76-3.68-5-6.88-7.48-9.93-14.07-17.38-31-31.36-56-34.59-16.57-2.15-30.85,0-42.27,13.76-24.92,30-51.53,58.9-77.24,88.39-2.76,3.16-5.13,3.88-9.15,2.45-5.25-1.86-10.61-3.55-16.05-4.89-11-2.72-26.94,4.34-31.68,13.82-1,2-2,4.11-3.09,6.1q-42.09,74.93-84.28,149.79c-2.08,3.68-1.92,6.33.57,9.82Q1693.84,396,1756,483.7a35.65,35.65,0,0,1,7,21.39c-.12,44.73-.06,89.46,0,134.19,0,9.07,1.18,10.15,11.2,10.15h272.66c9.81,0,11.37-1.4,11.37-10.18,0-45.25,0-90.49.12-135.74a23.48,23.48,0,0,1,2.66-10.32c10.45-20.3,21.29-40.44,31.82-60.71,11.9-22.92,23.9-45.82,28.79-71,.85-4.38,1.18-9,3.13-13,8.18-16.85,17-33.45,25.34-50.26,4.72-9.57,9.77-19.14,13-29.14C2167.93,254,2162.34,241.85,2147.73,233.34Zm-93.41-98.83c4.06,2.91,8,5.29,11.4,8.24,13.27,11.65,24.07,25,33.65,39.2,5.69,8.46,4.67,16.47-.77,24.24-4.48,6.4-9.61,12.45-14.73,18.47-16.76,19.73-33.51,39.48-50.62,59-3.21,3.65-7.81,6.52-12.26,9.07a14.88,14.88,0,0,1-14.37.22c-7.69-3.92-15.53-7.74-22.63-12.42-10.82-7.13-12.08-17.77-10-28.42a50.31,50.31,0,0,1,8-19.06c22.46-31.45,45.53-62.56,68.41-93.77C2051.42,137.86,2052.62,136.56,2054.32,134.51Zm-97.1-41.79a142.29,142.29,0,0,1,11.13-12.5c8.56-8.73,19.73-11.59,31.43-7.34,12.39,4.51,24.71,9.93,35.58,16.81,15.67,9.92,17.74,25.59,7.16,40.11-25.11,34.44-50.29,68.84-75.93,103.94l-81.19-47.21c8-10.45,15.69-20.65,23.47-30.81C1925,134.7,1941,113.66,1957.22,92.72Zm-142.9,11.71c16.64-19,33.65-37.72,49.8-57,7.4-8.84,17.28-8.34,27.1-7.48,15,1.32,27.47,8.09,37.54,17.82a127.9,127.9,0,0,1,16.66,19.72c1.77,2.6,1.89,7.89,0,10.35-23,30.75-46.5,61.21-69.88,91.74a9,9,0,0,1-1.42,1L1786.64,136C1796.08,125.24,1805.19,114.83,1814.32,104.43Zm80.93,332.92c-3.6-.07-6.89.3-7.21,4.19s2.76,5.28,6.65,5.57c.76.06,1.53.16,2.76.29V638.34H1777.73c.42-4.3,1.16-8.47,1.17-12.65.09-40.76,0-81.53.16-122.29a20.34,20.34,0,0,0-4.15-12.5q-65.12-91.47-130.16-183c-2.39-3.34-2.47-5.79-.51-9.26q41.51-73.42,82.73-147a14.94,14.94,0,0,0,1.56-2.76c4.76-15.82,25.54-20.13,40.87-10.64,32.71,20.26,69,34.87,102.51,53.8,29.35,16.59,58.34,33.68,87.5,50.54,6.45,3.73,2.48,8.66.86,12.28-8.35,18.68-28.39,28.22-50.87,25.14-27.38-3.76-52.74-13-77.88-22.72-15-5.82-29.69-12.42-44.59-18.52-1.9-.78-4.3-.54-6.41-1-1.73-.38-3.81-.7-5-1.72-5.81-5.1-11.37-10.42-17.1-15.73,1.06,9.49,8.75,15.31,16.43,21.62-1.76,2.8-3.32,5.71-5.3,8.36-5.26,7.05-5.87,13.06.45,19.33a77.37,77.37,0,0,0,18.58,13.66c53.5,27.64,90,68.39,115.23,117.76,4.72,9.26,6.72,19.63,9.78,29.53.59,1.92.3,4,.45,6.79C1907.18,437.39,1901.21,437.47,1895.25,437.35Zm197.88-32.65c-14.39,28.88-29.64,57.41-44.33,86.17a24.69,24.69,0,0,0-2.78,10.81c-.19,43.33-.12,86.67-.14,130,0,2.19-.26,4.38-.41,6.77h-115.1V447.58c1.9-.3,4.26-.07,5.49-1,1.79-1.35,3.75-3.55,3.75-5.39,0-1.26-3.06-3.39-5-3.62-4.51-.54-9.16-.17-14.1-.17,0-6.34.17-12.13,0-17.92-.89-25.36-12.54-47.24-28.62-67.44q-35.37-44.44-89.11-70.88a104,104,0,0,1-20.26-13.48c-5-4.17-6.83-9.88-3.41-16,2-3.58,4.2-4.3,8.68-2.52,27,10.66,53.87,21.47,81.26,31.18,12.07,4.28,25.12,6.59,37.93,8.89,21.27,3.83,38.69-2.78,52.72-17.12.63-.64,1.1-1.39,2.17-2.76,8.38,19.7,33.05,35.44,55.22,36.4-1.09,10.62-3,21.25-3.1,31.88-.1,22,13.77,39,35.43,44.62,18.08,4.71,33.82-.53,48.59-9.43,3.14-1.89,6.06-4.1,9.08-6.16l1.59.68C2103.54,379.78,2099.18,392.57,2093.13,404.7Zm57.81-137.49c-2.79,8.16-7,16-10.72,23.85-6.53,13.75-13,27.55-19.86,41.16-8.11,16-20.89,28.47-38.63,36.34-26.31,11.67-51.47-.72-55-26.74-.39-2.9-.7-5.8-1-8.7l-.56-.16c1.9-8.74,3.68-17.5,5.79-26.2a15.2,15.2,0,0,1,3.28-5.91c21.56-25.35,43.26-50.61,64.8-76,2.2-2.59,3.95-3.06,7.09-1.32,11.47,6.35,23.26,12.25,34.57,18.81C2151.55,248.65,2154.75,256.07,2150.94,267.21Z" style="fill:#fff"/><path d="M1883.4,555.79a28.25,28.25,0,0,1-5.14-.71c-17.83-3.13-29.77-12-33.31-28.25-1.65-7.54-2-15.31-2.8-23-1.12-10.59-1.2-21.34-3.4-31.74-4.87-23.06-22.32-35.36-47.47-34.74-3.39.09-6.22.43-6.43,4.25s2.27,5.1,6,5.51c14.16,1.53,20.9,6,23.12,18.43,1.89,10.6,1.48,21.52,2,32.3.64,12.83-.49,25.94,2.12,38.43,6,28.77,38,50.05,70.61,47.78,0-7.76-.18-15.3.08-22.82C1888.91,557.6,1887.72,555.75,1883.4,555.79Z" style="fill:#fff"/><path d="M2038.64,437.57c-11.24-.71-22,1-31.31,7.07-14.19,9.22-18.57,22.85-20.15,37.35-1.34,12.29-1.23,24.71-2.48,37-2,19.9-13,31.47-33,35.74-3.87.83-7.85,1.26-11.94,1.9V584.7c4.43-.51,8.25-.77,12-1.4,19.43-3.26,36.5-10.17,48-25.32,11.8-15.59,13.81-33.17,13-51.35-.47-10.13-1-20.3-.56-30.41a52.58,52.58,0,0,1,4.15-17c3.12-7.65,10.07-11.42,19.15-12.11,1.52-.11,3.58.07,4.42-.72,1.53-1.42,3.21-3.49,3.13-5.23C2042.89,439.88,2040.26,437.67,2038.64,437.57Z" style="fill:#fff"/></g><text transform="translate(152.08 641.9) scale(1.12 1)" style="font-size:417.72210693359375px;fill:#fff;font-family:Montserrat-Black, Montserrat;font-weight:800">MEPC</text></svg>